<?xml version="1.0" encoding="UTF-8" standalone="no"?>
<!-- Created with Inkscape (http://www.inkscape.org/) -->

<svg
   width="142mm"
   height="128.5mm"
   viewBox="0 0 142.00001 128.5"
   version="1.1"
   id="svg8"
   inkscape:version="1.3.2 (091e20e, 2023-11-25)"
   sodipodi:docname="EncoderBank.svg"
   xmlns:inkscape="http://www.inkscape.org/namespaces/inkscape"
   xmlns:sodipodi="http://sodipodi.sourceforge.net/DTD/sodipodi-0.dtd"
   xmlns="http://www.w3.org/2000/svg"
   xmlns:svg="http://www.w3.org/2000/svg"
   xmlns:rdf="http://www.w3.org/1999/02/22-rdf-syntax-ns#"
   xmlns:cc="http://creativecommons.org/ns#"
   xmlns:dc="http://purl.org/dc/elements/1.1/">
  <defs
     id="defs2">
    <rect
       x="12.020815"
       y="14.142135"
       width="277.89297"
       height="82.731491"
       id="rect7" />
    <rect
       x="13.435028"
       y="8.485281"
       width="207.18228"
       height="74.953316"
       id="rect6" />
    <rect
       x="4.2426405"
       y="13.435028"
       width="237.58788"
       height="133.64317"
       id="rect5" />
    <rect
       x="17.67767"
       y="26.162951"
       width="209.3036"
       height="193.04015"
       id="rect4" />
    <rect
       x="12.727922"
       y="2.1213202"
       width="181.72644"
       height="167.5843"
       id="rect3" />
    <rect
       x="16.263456"
       y="6.3639607"
       width="225.56706"
       height="142.12846"
       id="rect2" />
    <rect
       x="28.284269"
       y="8.485281"
       width="227.68839"
       height="118.79394"
       id="rect1" />
  </defs>
  <sodipodi:namedview
     id="base"
     pagecolor="#ffffff"
     bordercolor="#666666"
     borderopacity="1.0"
     inkscape:pageopacity="0.0"
     inkscape:pageshadow="2"
     inkscape:zoom="1.4142136"
     inkscape:cx="570.98871"
     inkscape:cy="257.38686"
     inkscape:document-units="mm"
     inkscape:current-layer="layer1"
     showgrid="true"
     inkscape:window-width="1392"
     inkscape:window-height="945"
     inkscape:window-x="0"
     inkscape:window-y="25"
     inkscape:window-maximized="0"
     inkscape:showpageshadow="2"
     inkscape:pagecheckerboard="0"
     inkscape:deskcolor="#d1d1d1">
    <inkscape:grid
       type="xygrid"
       id="grid29"
       units="mm"
       spacingx="2.5400001"
       spacingy="2.5400001"
       empspacing="8"
       snapvisiblegridlinesonly="true"
       originx="0"
       originy="0"
       visible="true" />
  </sodipodi:namedview>
  <metadata
     id="metadata5">
    <rdf:RDF>
      <cc:Work
         rdf:about="">
        <dc:format>image/svg+xml</dc:format>
        <dc:type
           rdf:resource="http://purl.org/dc/dcmitype/StillImage" />
      </cc:Work>
    </rdf:RDF>
  </metadata>
  <g
     inkscape:label="Layer 1"
     inkscape:groupmode="layer"
     id="layer1"
     transform="translate(0,-168.5)"
     style="display:inline">
    <path
       style="fill:#b3b3b3;stroke-width:0.329963"
       d="M -4.0000096e-6,167.45999 H 142.2137 V 296.99997 H -4.0000096e-6 Z"
       id="rect3742"
       inkscape:connector-curvature="0" />
    <g
       transform="matrix(0.93609987,0.03367917,-0.05167333,1.066403,0,0)"
       style="font-style:normal;font-weight:normal;font-size:2.87843px;line-height:1.25;font-family:sans-serif;letter-spacing:0px;word-spacing:0px;fill:#000000;fill-opacity:1;stroke:none;stroke-width:0.0719608"
       id="text5027" />
    <g
       style="font-style:normal;font-weight:normal;font-size:2.46944px;line-height:1.25;font-family:sans-serif;letter-spacing:0px;word-spacing:0px;display:inline;fill:#000000;fill-opacity:1;stroke:none;stroke-width:0.264583"
       id="text4768-2-8" />
    <g
       aria-label="the all electric smartgrid"
       transform="matrix(0.136614,0,0,0.12152503,15.567529,273.83571)"
       style="font-style:normal;font-weight:normal;font-size:40px;line-height:1.25;font-family:sans-serif;letter-spacing:0px;word-spacing:0px;display:inline;fill:#000000;fill-opacity:1;stroke:none"
       id="flowRoot13252">
      <path
         d="m 47.324219,49.824219 v 6.210937 h 7.402343 v 2.792969 h -7.402343 v 11.875 q 0,2.675781 0.722656,3.4375 0.742187,0.761719 2.988281,0.761719 h 3.691406 v 3.007812 h -3.691406 q -4.160156,0 -5.742187,-1.542969 -1.582032,-1.5625 -1.582032,-5.664062 v -11.875 h -2.636718 v -2.792969 h 2.636718 v -6.210937 z"
         id="path13982"
         inkscape:connector-curvature="0" />
      <path
         d="M 77.65625,64.707031 V 77.910156 H 74.0625 V 64.824219 q 0,-3.105469 -1.210938,-4.648438 -1.210937,-1.542969 -3.632812,-1.542969 -2.910156,0 -4.589844,1.855469 -1.679687,1.855469 -1.679687,5.058594 V 77.910156 H 59.335937 V 47.519531 h 3.613282 v 11.914063 q 1.289062,-1.972657 3.027343,-2.949219 1.757813,-0.976563 4.042969,-0.976563 3.769531,0 5.703125,2.34375 1.933594,2.324219 1.933594,6.855469 z"
         id="path13984"
         inkscape:connector-curvature="0" />
      <path
         d="m 103.57422,66.074219 v 1.757812 H 87.050781 q 0.234375,3.710938 2.226563,5.664063 2.011718,1.933593 5.585937,1.933593 2.070313,0 4.003906,-0.507812 1.953123,-0.507813 3.867193,-1.523438 v 3.398438 q -1.9336,0.820312 -3.964849,1.25 -2.03125,0.429687 -4.121094,0.429687 -5.234375,0 -8.300781,-3.046875 -3.046875,-3.046875 -3.046875,-8.242187 0,-5.371094 2.890625,-8.515625 2.910156,-3.164063 7.832031,-3.164063 4.414063,0 6.972653,2.851563 2.57813,2.832031 2.57813,7.714844 z M 99.980469,65.019531 Q 99.941406,62.070312 98.320312,60.3125 96.71875,58.554687 94.0625,58.554687 q -3.007813,0 -4.824219,1.699219 -1.796875,1.699219 -2.070312,4.785156 z"
         id="path13986"
         inkscape:connector-curvature="0" />
      <path
         d="m 132.14844,66.914062 q -4.35547,0 -6.03516,0.996094 -1.67969,0.996094 -1.67969,3.398438 0,1.914062 1.25,3.046875 1.26954,1.113281 3.4375,1.113281 2.98828,0 4.78516,-2.109375 1.81641,-2.128906 1.81641,-5.644531 v -0.800782 z m 7.16797,-1.484375 v 12.480469 h -3.59375 v -3.320312 q -1.23047,1.992187 -3.06641,2.949218 -1.83594,0.9375 -4.49219,0.9375 -3.35937,0 -5.35156,-1.875 -1.97266,-1.894531 -1.97266,-5.058593 0,-3.691407 2.46094,-5.566407 2.48047,-1.875 7.38281,-1.875 h 5.03907 V 63.75 q 0,-2.480469 -1.64063,-3.828125 -1.62109,-1.367188 -4.57031,-1.367188 -1.875,0 -3.65234,0.449219 -1.77735,0.449219 -3.41797,1.347656 V 57.03125 q 1.97265,-0.761719 3.82812,-1.132813 1.85547,-0.390625 3.61328,-0.390625 4.7461,0 7.08985,2.460938 2.34375,2.460937 2.34375,7.460937 z"
         id="path13988"
         inkscape:connector-curvature="0" />
      <path
         d="m 146.73828,47.519531 h 3.59375 v 30.390625 h -3.59375 z"
         id="path13990"
         inkscape:connector-curvature="0" />
      <path
         d="m 157.83203,47.519531 h 3.59375 v 30.390625 h -3.59375 z"
         id="path13992"
         inkscape:connector-curvature="0" />
      <path
         d="m 62.480469,116.07422 v 1.75781 H 45.957031 q 0.234375,3.71094 2.226563,5.66406 2.011718,1.9336 5.585937,1.9336 2.070313,0 4.003906,-0.50781 1.953125,-0.50782 3.867188,-1.52344 v 3.39844 q -1.933594,0.82031 -3.964844,1.24999 -2.03125,0.42969 -4.121094,0.42969 -5.234375,0 -8.300781,-3.04687 -3.046875,-3.04688 -3.046875,-8.24219 0,-5.37109 2.890625,-8.51562 2.910156,-3.16407 7.832031,-3.16407 4.414063,0 6.972657,2.85157 2.578125,2.83203 2.578125,7.71484 z m -3.59375,-1.05469 q -0.03906,-2.94922 -1.660157,-4.70703 -1.601562,-1.75781 -4.257812,-1.75781 -3.007813,0 -4.824219,1.69922 -1.796875,1.69922 -2.070312,4.78515 z"
         id="path13994"
         inkscape:connector-curvature="0" />
      <path
         d="m 68.378906,97.519531 h 3.59375 v 30.390629 h -3.59375 z"
         id="path13996"
         inkscape:connector-curvature="0" />
      <path
         d="m 98.183594,116.07422 v 1.75781 H 81.660156 q 0.234375,3.71094 2.226563,5.66406 2.011718,1.9336 5.585937,1.9336 2.070313,0 4.003906,-0.50781 1.953125,-0.50782 3.867188,-1.52344 v 3.39844 q -1.933594,0.82031 -3.964844,1.24999 -2.03125,0.42969 -4.121094,0.42969 -5.234375,0 -8.300781,-3.04687 -3.046875,-3.04688 -3.046875,-8.24219 0,-5.37109 2.890625,-8.51562 2.910156,-3.16407 7.832031,-3.16407 4.414063,0 6.972657,2.85157 2.578125,2.83203 2.578125,7.71484 z m -3.59375,-1.05469 q -0.03906,-2.94922 -1.660157,-4.70703 -1.601562,-1.75781 -4.257812,-1.75781 -3.007813,0 -4.824219,1.69922 -1.796875,1.69922 -2.070312,4.78515 z"
         id="path13998"
         inkscape:connector-curvature="0" />
      <path
         d="m 119.82422,106.875 v 3.35938 q -1.52344,-0.83985 -3.06641,-1.25 -1.52343,-0.42969 -3.08593,-0.42969 -3.4961,0 -5.42969,2.22656 -1.9336,2.20703 -1.9336,6.21094 0,4.0039 1.9336,6.23047 1.93359,2.20703 5.42969,2.20703 1.5625,0 3.08593,-0.41016 1.54297,-0.42969 3.06641,-1.26953 v 3.32031 q -1.50391,0.70313 -3.125,1.05469 -1.60156,0.35156 -3.41797,0.35156 -4.94141,0 -7.85156,-3.10547 -2.91016,-3.10546 -2.91016,-8.3789 0,-5.35156 2.92969,-8.41797 2.94922,-3.06641 8.06641,-3.06641 1.66015,0 3.24218,0.35157 1.58203,0.33203 3.06641,1.01562 z"
         id="path14000"
         inkscape:connector-curvature="0" />
      <path
         d="m 129.66797,99.824219 v 6.210941 h 7.40234 v 2.79297 h -7.40234 v 11.875 q 0,2.67578 0.72265,3.4375 0.74219,0.76171 2.98829,0.76171 h 3.6914 v 3.00782 h -3.6914 q -4.16016,0 -5.74219,-1.54297 -1.58203,-1.5625 -1.58203,-5.66406 v -11.875 h -2.63672 v -2.79297 h 2.63672 v -6.210941 z"
         id="path14002"
         inkscape:connector-curvature="0" />
      <path
         d="m 154.49219,109.39453 q -0.60547,-0.35156 -1.32813,-0.50781 -0.70312,-0.17578 -1.5625,-0.17578 -3.04687,0 -4.6875,1.99219 -1.62109,1.97265 -1.62109,5.68359 v 11.52344 h -3.61328 v -21.875 h 3.61328 v 3.39843 q 1.13281,-1.99218 2.94922,-2.94921 1.8164,-0.97657 4.41406,-0.97657 0.37109,0 0.82031,0.0586 0.44922,0.0391 0.9961,0.13672 z"
         id="path14004"
         inkscape:connector-curvature="0" />
      <path
         d="m 158.30078,106.03516 h 3.59375 v 21.875 h -3.59375 z m 0,-8.515629 h 3.59375 v 4.550779 h -3.59375 z"
         id="path14006"
         inkscape:connector-curvature="0" />
      <path
         d="m 185.13672,106.875 v 3.35938 q -1.52344,-0.83985 -3.06641,-1.25 -1.52344,-0.42969 -3.08594,-0.42969 -3.49609,0 -5.42968,2.22656 -1.9336,2.20703 -1.9336,6.21094 0,4.0039 1.9336,6.23047 1.93359,2.20703 5.42968,2.20703 1.5625,0 3.08594,-0.41016 1.54297,-0.42969 3.06641,-1.26953 v 3.32031 q -1.50391,0.70313 -3.125,1.05469 -1.60156,0.35156 -3.41797,0.35156 -4.94141,0 -7.85156,-3.10547 -2.91016,-3.10546 -2.91016,-8.3789 0,-5.35156 2.92969,-8.41797 2.94922,-3.06641 8.0664,-3.06641 1.66016,0 3.24219,0.35157 1.58203,0.33203 3.06641,1.01562 z"
         id="path14008"
         inkscape:connector-curvature="0" />
      <path
         d="m 57.714844,156.67969 v 3.39843 q -1.523438,-0.78125 -3.164063,-1.17187 -1.640625,-0.39063 -3.398437,-0.39063 -2.675782,0 -4.023438,0.82032 -1.328125,0.82031 -1.328125,2.46093 0,1.25 0.957031,1.97266 0.957032,0.70313 3.847657,1.34766 l 1.230468,0.27343 q 3.828125,0.82032 5.429688,2.32422 1.621094,1.48438 1.621094,4.16016 0,3.04687 -2.421875,4.82422 -2.402344,1.77734 -6.621094,1.77734 -1.757813,0 -3.671875,-0.35156 -1.894531,-0.33203 -4.003906,-1.01563 v -3.71093 q 1.992187,1.03515 3.925781,1.5625 1.933594,0.50781 3.828125,0.50781 2.539062,0 3.90625,-0.85938 1.367187,-0.8789 1.367187,-2.46093 0,-1.46485 -0.996093,-2.2461 -0.976563,-0.78125 -4.316407,-1.5039 l -1.25,-0.29297 q -3.339843,-0.70313 -4.824218,-2.14844 -1.484375,-1.46484 -1.484375,-4.00391 0,-3.08593 2.1875,-4.76562 2.1875,-1.67969 6.210937,-1.67969 1.992188,0 3.75,0.29297 1.757813,0.29297 3.242188,0.87891 z"
         id="path14010"
         inkscape:connector-curvature="0" />
      <path
         d="m 81.660156,160.23437 q 1.347656,-2.42187 3.222656,-3.57421 1.875,-1.15235 4.414063,-1.15235 3.417969,0 5.273437,2.40235 1.855469,2.38281 1.855469,6.79687 v 13.20313 H 92.8125 v -13.08594 q 0,-3.14453 -1.113281,-4.66797 -1.113282,-1.52344 -3.398438,-1.52344 -2.792969,0 -4.414062,1.85547 -1.621094,1.85547 -1.621094,5.05859 v 12.36329 h -3.613281 v -13.08594 q 0,-3.16406 -1.113282,-4.66797 -1.113281,-1.52344 -3.4375,-1.52344 -2.753906,0 -4.375,1.875 -1.621093,1.85547 -1.621093,5.03906 v 12.36329 h -3.613282 v -21.875 h 3.613282 v 3.39843 q 1.230468,-2.01172 2.949218,-2.96875 1.71875,-0.95703 4.082032,-0.95703 2.382812,0 4.042968,1.21094 1.679688,1.21094 2.480469,3.51562 z"
         id="path14012"
         inkscape:connector-curvature="0" />
      <path
         d="m 113.55469,166.91406 q -4.35547,0 -6.03516,0.9961 -1.67969,0.99609 -1.67969,3.39843 0,1.91407 1.25,3.04688 1.26954,1.11328 3.4375,1.11328 2.98829,0 4.78516,-2.10938 1.81641,-2.1289 1.81641,-5.64453 v -0.80078 z m 7.16797,-1.48437 v 12.48047 h -3.59375 v -3.32032 q -1.23047,1.99219 -3.06641,2.94922 -1.83594,0.9375 -4.49219,0.9375 -3.35937,0 -5.35156,-1.875 -1.97266,-1.89453 -1.97266,-5.05859 0,-3.69141 2.46094,-5.56641 2.48047,-1.875 7.38281,-1.875 h 5.03907 V 163.75 q 0,-2.48047 -1.64063,-3.82813 -1.62109,-1.36718 -4.57031,-1.36718 -1.875,0 -3.65234,0.44922 -1.77735,0.44921 -3.41797,1.34765 v -3.32031 q 1.97265,-0.76172 3.82812,-1.13281 1.85547,-0.39063 3.61328,-0.39063 4.7461,0 7.08985,2.46094 2.34375,2.46094 2.34375,7.46094 z"
         id="path14014"
         inkscape:connector-curvature="0" />
      <path
         d="m 140.82031,159.39453 q -0.60547,-0.35156 -1.32812,-0.50781 -0.70313,-0.17578 -1.5625,-0.17578 -3.04688,0 -4.6875,1.99218 -1.6211,1.97266 -1.6211,5.6836 v 11.52344 h -3.61328 v -21.875 h 3.61328 v 3.39843 q 1.13282,-1.99218 2.94922,-2.94922 1.81641,-0.97656 4.41406,-0.97656 0.3711,0 0.82032,0.0586 0.44922,0.0391 0.99609,0.13671 z"
         id="path14016"
         inkscape:connector-curvature="0" />
      <path
         d="m 148.18359,149.82422 v 6.21094 h 7.40235 v 2.79296 h -7.40235 v 11.875 q 0,2.67579 0.72266,3.4375 0.74219,0.76172 2.98828,0.76172 h 3.69141 v 3.00782 h -3.69141 q -4.16016,0 -5.74219,-1.54297 -1.58203,-1.5625 -1.58203,-5.66407 v -11.875 h -2.63672 v -2.79296 h 2.63672 v -6.21094 z"
         id="path14018"
         inkscape:connector-curvature="0" />
      <path
         d="m 174.72656,166.71875 q 0,-3.90625 -1.62109,-6.05469 -1.60156,-2.14844 -4.51172,-2.14844 -2.89063,0 -4.51172,2.14844 -1.60156,2.14844 -1.60156,6.05469 0,3.88672 1.60156,6.03516 1.62109,2.14843 4.51172,2.14843 2.91016,0 4.51172,-2.14843 1.62109,-2.14844 1.62109,-6.03516 z m 3.59375,8.47656 q 0,5.58594 -2.48047,8.30078 -2.48047,2.73438 -7.59765,2.73438 -1.89453,0 -3.57422,-0.29297 -1.67969,-0.27344 -3.26172,-0.85938 v -3.49609 q 1.58203,0.85938 3.125,1.26953 1.54297,0.41016 3.14453,0.41016 3.53516,0 5.29297,-1.85547 1.75781,-1.83594 1.75781,-5.56641 v -1.77734 q -1.11328,1.93359 -2.85156,2.89062 -1.73828,0.95704 -4.16016,0.95704 -4.02343,0 -6.48437,-3.06641 -2.46094,-3.06641 -2.46094,-8.125 0,-5.07813 2.46094,-8.14453 2.46094,-3.06641 6.48437,-3.06641 2.42188,0 4.16016,0.95703 1.73828,0.95703 2.85156,2.89063 v -3.32031 h 3.59375 z"
         id="path14020"
         inkscape:connector-curvature="0" />
      <path
         d="m 198.39844,159.39453 q -0.60547,-0.35156 -1.32813,-0.50781 -0.70312,-0.17578 -1.5625,-0.17578 -3.04687,0 -4.6875,1.99218 -1.62109,1.97266 -1.62109,5.6836 v 11.52344 h -3.61328 v -21.875 h 3.61328 v 3.39843 q 1.13281,-1.99218 2.94922,-2.94922 1.8164,-0.97656 4.41406,-0.97656 0.37109,0 0.82031,0.0586 0.44922,0.0391 0.9961,0.13671 z"
         id="path14022"
         inkscape:connector-curvature="0" />
      <path
         d="m 202.20703,156.03516 h 3.59375 v 21.875 h -3.59375 z m 0,-8.51563 h 3.59375 v 4.55078 h -3.59375 z"
         id="path14024"
         inkscape:connector-curvature="0" />
      <path
         d="m 227.69531,159.35547 v -11.83594 h 3.59375 v 30.39063 h -3.59375 v -3.28125 q -1.13281,1.95312 -2.87109,2.91015 -1.71875,0.9375 -4.14063,0.9375 -3.96484,0 -6.46484,-3.16406 -2.48047,-3.16406 -2.48047,-8.32031 0,-5.15625 2.48047,-8.32032 2.5,-3.16406 6.46484,-3.16406 2.42188,0 4.14063,0.95703 1.73828,0.9375 2.87109,2.89063 z m -12.24609,7.63672 q 0,3.96484 1.62109,6.23047 1.64063,2.24609 4.49219,2.24609 2.85156,0 4.49219,-2.24609 1.64062,-2.26563 1.64062,-6.23047 0,-3.96485 -1.64062,-6.21094 -1.64063,-2.26563 -4.49219,-2.26563 -2.85156,0 -4.49219,2.26563 -1.62109,2.24609 -1.62109,6.21094 z"
         id="path14026"
         inkscape:connector-curvature="0" />
    </g>
    <path
       d="M 33.550112,48.202881 H 15.667315 V 21.059675 h 17.882797 v 3.20833 H 19.276687 v 7.437494 H 33.550112 V 34.91383 H 19.276687 v 10.08072 h 14.273425 z m 22.476543,0 h -3.42708 v -11.59374 q 0,-1.403645 -0.164063,-2.624998 -0.164062,-1.239582 -0.601562,-1.93229 -0.455729,-0.765624 -1.312499,-1.130207 -0.85677,-0.382813 -2.223956,-0.382813 -1.403645,0 -2.934893,0.692708 -1.531249,0.692708 -2.934894,1.768228 v 15.203112 h -3.42708 V 27.840919 h 3.42708 v 2.260415 q 1.604166,-1.330728 3.317706,-2.078123 1.71354,-0.747396 3.518226,-0.747396 3.299476,0 5.031246,1.986978 1.731769,1.986977 1.731769,5.723953 z M 77.682884,46.92684 q -1.71354,0.820312 -3.263018,1.276041 -1.531249,0.455729 -3.263018,0.455729 -2.205728,0 -4.046872,-0.638021 -1.841144,-0.656249 -3.153643,-1.968748 -1.330728,-1.312499 -2.059894,-3.317705 -0.729166,-2.005207 -0.729166,-4.684892 0,-4.994788 2.734373,-7.838535 2.752601,-2.843748 7.255202,-2.843748 1.749998,0 3.42708,0.492187 1.695311,0.492187 3.098956,1.203124 v 3.809893 h -0.182292 q -1.567707,-1.221353 -3.244789,-1.877603 -1.658852,-0.656249 -3.244789,-0.656249 -2.916664,0 -4.611975,1.968748 -1.677082,1.950519 -1.677082,5.742183 0,3.682288 1.640624,5.669266 1.658853,1.968748 4.648433,1.968748 1.039062,0 2.114582,-0.273437 1.07552,-0.273437 1.93229,-0.710937 0.747395,-0.382812 1.403645,-0.802083 0.656249,-0.437499 1.039061,-0.747395 h 0.182292 z m 21.747381,-8.895825 q 0,4.976558 -2.552081,7.856764 -2.552081,2.880206 -6.835932,2.880206 -4.320309,0 -6.87239,-2.880206 -2.533852,-2.880206 -2.533852,-7.856764 0,-4.976559 2.533852,-7.856765 2.552081,-2.898435 6.87239,-2.898435 4.283851,0 6.835932,2.898435 2.552081,2.880206 2.552081,7.856765 z m -3.536455,0 q 0,-3.955726 -1.549478,-5.869787 -1.549478,-1.93229 -4.30208,-1.93229 -2.78906,0 -4.338538,1.93229 -1.531249,1.914061 -1.531249,5.869787 0,3.828121 1.549478,5.815099 1.549478,1.968748 4.320309,1.968748 2.734373,0 4.283851,-1.950519 1.567707,-1.968748 1.567707,-5.833328 z m 25.35674,10.171866 h -3.42708 V 46.07007 q -1.47656,1.276041 -3.08072,1.986978 -1.60417,0.710937 -3.48177,0.710937 -3.64583,0 -5.79687,-2.80729 -2.13281,-2.807289 -2.13281,-7.783847 0,-2.58854 0.72916,-4.611975 0.7474,-2.023436 2.00521,-3.44531 1.23958,-1.385415 2.88021,-2.114582 1.65885,-0.729166 3.42708,-0.729166 1.60416,0 2.84374,0.346354 1.23959,0.328125 2.60677,1.039062 v -8.822909 h 3.42708 z m -3.42708,-5.013017 V 31.504978 q -1.38541,-0.619791 -2.47916,-0.85677 -1.09375,-0.236979 -2.38802,-0.236979 -2.88021,0 -4.48437,2.005207 -1.60417,2.005207 -1.60417,5.687495 0,3.627601 1.23958,5.523433 1.23959,1.877603 3.97396,1.877603 1.45833,0 2.95312,-0.638021 1.49479,-0.656249 2.78906,-1.677082 z m 27.21613,-4.812496 h -15.00259 q 0,1.877603 0.5651,3.281248 0.5651,1.385415 1.54948,2.278644 0.94791,0.874999 2.24218,1.312498 1.3125,0.4375 2.88021,0.4375 2.07812,0 4.17447,-0.820312 2.11459,-0.838541 3.00781,-1.640623 h 0.1823 v 3.736976 q -1.73177,0.729166 -3.53646,1.221353 -1.80469,0.492187 -3.79166,0.492187 -5.06771,0 -7.91145,-2.734373 -2.84375,-2.752602 -2.84375,-7.802076 0,-4.994788 2.71614,-7.929681 2.73437,-2.934894 7.18229,-2.934894 4.11978,0 6.34374,2.406248 2.24219,2.406248 2.24219,6.835932 z m -3.33594,-2.624997 q -0.0182,-2.697915 -1.36718,-4.174476 -1.33073,-1.476561 -4.0651,-1.476561 -2.75261,0 -4.39323,1.622394 -1.62239,1.622395 -1.84114,4.028643 z m 21.23697,-4.174476 h -0.18229 q -0.76563,-0.182291 -1.49479,-0.255208 -0.71094,-0.09115 -1.69531,-0.09115 -1.58594,0 -3.0625,0.710937 -1.47656,0.692708 -2.84375,1.804686 v 14.455717 h -3.42708 V 27.840919 h 3.42708 v 3.00781 q 2.04167,-1.640624 3.59114,-2.315102 1.56771,-0.692708 3.19011,-0.692708 0.89322,0 1.29427,0.05469 0.40104,0.03646 1.20312,0.164062 z m 23.97134,8.276035 q 0,2.023436 -0.76563,3.572913 -0.76562,1.549478 -2.05989,2.552082 -1.53125,1.203123 -3.37239,1.71354 -1.82292,0.510416 -4.64844,0.510416 h -9.62499 V 21.059675 h 8.03906 q 2.97135,0 4.44791,0.21875 1.47656,0.21875 2.82552,0.911457 1.49479,0.783854 2.16927,2.023436 0.67447,1.221353 0.67447,2.934893 0,1.93229 -0.98437,3.299477 -0.98437,1.348957 -2.625,2.169269 v 0.145833 q 2.7526,0.565104 4.33854,2.424477 1.58594,1.841144 1.58594,4.666663 z m -6.07031,-12.231761 q 0,-0.984374 -0.32813,-1.658852 -0.32812,-0.674479 -1.05729,-1.09375 -0.85677,-0.492187 -2.07812,-0.601562 -1.22135,-0.127604 -3.02604,-0.127604 H 170.05 v 7.838535 h 4.66666 q 1.69532,0 2.69792,-0.164062 1.0026,-0.182291 1.85937,-0.729166 0.85677,-0.546875 1.20313,-1.403645 0.36458,-0.874999 0.36458,-2.059894 z m 2.3151,12.377594 q 0,-1.640624 -0.49219,-2.606769 -0.49218,-0.966145 -1.78645,-1.640623 -0.875,-0.455729 -2.13281,-0.583333 -1.23959,-0.145833 -3.02604,-0.145833 H 170.05 v 10.098949 h 4.77604 q 2.36979,0 3.88281,-0.236979 1.51302,-0.255208 2.47916,-0.911457 1.02084,-0.710937 1.49479,-1.622395 0.47396,-0.911457 0.47396,-2.35156 z m 24.42706,8.203118 h -3.40886 v -2.169269 q -0.45572,0.309896 -1.23958,0.874999 -0.76562,0.546875 -1.49479,0.874999 -0.85677,0.419271 -1.96875,0.692708 -1.11198,0.291667 -2.60677,0.291667 -2.7526,0 -4.66666,-1.822915 -1.91406,-1.822916 -1.91406,-4.648434 0,-2.315102 0.98438,-3.736976 1.0026,-1.440103 2.84374,-2.260415 1.85938,-0.820312 4.46614,-1.111978 2.60677,-0.291666 5.59635,-0.4375 v -0.528645 q 0,-1.166666 -0.41927,-1.93229 -0.40104,-0.765624 -1.16666,-1.203124 -0.72917,-0.41927 -1.75,-0.565104 -1.02083,-0.145833 -2.13281,-0.145833 -1.34896,0 -3.00781,0.364583 -1.65885,0.346354 -3.42708,1.020833 h -0.18229 v -3.481768 q 1.0026,-0.273438 2.89843,-0.601562 1.89583,-0.328125 3.73698,-0.328125 2.15104,0 3.73697,0.364583 1.60417,0.346354 2.77083,1.203124 1.14844,0.838541 1.75,2.169269 0.60157,1.330728 0.60157,3.299476 z m -3.40886,-5.013017 v -5.669266 q -1.5677,0.09115 -3.70051,0.273438 -2.11459,0.182291 -3.35417,0.528645 -1.47656,0.419271 -2.38802,1.312499 -0.91145,0.874999 -0.91145,2.424477 0,1.749999 1.05729,2.643227 1.05729,0.874999 3.22656,0.874999 1.80468,0 3.29947,-0.692708 1.49479,-0.710936 2.77083,-1.695311 z m 27.03384,5.013017 h -3.42708 v -11.59374 q 0,-1.403645 -0.16406,-2.624998 -0.16407,-1.239582 -0.60157,-1.93229 -0.45572,-0.765624 -1.31249,-1.130207 -0.85677,-0.382813 -2.22396,-0.382813 -1.40365,0 -2.93489,0.692708 -1.53125,0.692708 -2.9349,1.768228 v 15.203112 h -3.42708 V 27.840919 h 3.42708 v 2.260415 q 1.60417,-1.330728 3.31771,-2.078123 1.71354,-0.747396 3.51822,-0.747396 3.29948,0 5.03125,1.986978 1.73177,1.986977 1.73177,5.723953 z m 25.08332,0 h -4.52083 l -8.16666,-8.914055 -2.22396,2.114582 v 6.799473 h -3.42708 V 19.838322 h 3.42708 v 18.192693 l 9.89843,-10.190096 h 4.32031 l -9.46093,9.406242 z"
       id="text1"
       style="font-size:37.3333px;white-space:pre"
       transform="matrix(0.26458333,0,0,0.26458333,0,168.5)"
       aria-label="EncoderBank" />
  </g>
  <g
     inkscape:groupmode="layer"
     id="layer2"
     inkscape:label="components"
     style="display:none">
    <circle
       style="fill:#ff0000;fill-opacity:1;stroke-width:0.264583"
       id="path3839"
       cx="83.820007"
       cy="34.519993"
       r="7.6200004"
       inkscape:label="o1k">
      <title
         id="title4128">o1k</title>
    </circle>
    <circle
       style="fill:#ff0000;fill-opacity:1;stroke-width:0.264583"
       id="path3841"
       cx="83.820007"
       cy="75.159996"
       r="7.6200004"
       inkscape:label="o2k">
      <title
         id="title4130">o2k</title>
    </circle>
    <circle
       style="fill:#ff0000;fill-opacity:1;stroke-width:0.264583"
       id="path3843"
       cx="83.820007"
       cy="115.8"
       r="7.6200004"
       inkscape:label="o3k">
      <title
         id="title4132">o3k</title>
    </circle>
    <circle
       style="fill:#0000ff;fill-opacity:1;stroke-width:0.264583"
       id="path3847"
       cx="96.520004"
       cy="21.819994"
       r="5.0799999"
       inkscape:label="o1t">
      <title
         id="title4134">o1t</title>
    </circle>
    <circle
       style="fill:#0000ff;fill-opacity:1;stroke-width:0.264583"
       id="path3849"
       cx="96.520004"
       cy="31.979994"
       r="5.0799999"
       inkscape:label="o1o">
      <title
         id="title4136">o1o</title>
    </circle>
    <circle
       style="fill:#0000ff;fill-opacity:1;stroke-width:0.264583"
       id="path3851"
       cx="96.520004"
       cy="62.459995"
       r="5.0799999"
       inkscape:label="o2t">
      <title
         id="title4140">o2t</title>
    </circle>
    <circle
       style="fill:#0000ff;fill-opacity:1;stroke-width:0.264583"
       id="path3853"
       cx="96.520004"
       cy="72.619995"
       r="5.0799999"
       inkscape:label="o2o">
      <title
         id="title4142">o2o</title>
    </circle>
    <circle
       style="fill:#0000ff;fill-opacity:1;stroke-width:0.264583"
       id="path3855"
       cx="96.520004"
       cy="103.1"
       r="5.0799999"
       inkscape:label="o3t">
      <title
         id="title4146">o3t</title>
    </circle>
    <circle
       style="fill:#0000ff;fill-opacity:1;stroke-width:0.264583"
       id="path3857"
       cx="96.520004"
       cy="113.25999"
       r="5.0799999"
       inkscape:label="o3o">
      <title
         id="title4148">o3o</title>
    </circle>
    <circle
       style="fill:#00ff00;fill-opacity:1;stroke-width:0.264583"
       id="path3861"
       cx="5.0800004"
       cy="21.81999"
       r="5.0799999"
       inkscape:label="i1i">
      <title
         id="title4152">i1i</title>
    </circle>
    <circle
       style="fill:#00ff00;fill-opacity:1;stroke-width:0.264583"
       id="path3865"
       cx="5.0800004"
       cy="42.139996"
       r="5.0799999"
       inkscape:label="i2i">
      <title
         id="title4156">12i</title>
    </circle>
    <circle
       style="fill:#00ff00;fill-opacity:1;stroke-width:0.264583"
       id="path3867"
       cx="5.0800004"
       cy="62.459995"
       r="5.0799999"
       inkscape:label="i3i">
      <title
         id="title4160">i3i</title>
    </circle>
    <circle
       style="fill:#00ff00;fill-opacity:1;stroke-width:0.264583"
       id="path3869"
       cx="5.0800004"
       cy="82.779984"
       r="5.0799999"
       inkscape:label="i4i">
      <title
         id="title4164">i4i</title>
    </circle>
    <circle
       style="fill:#00ff00;fill-opacity:1;stroke-width:0.264583"
       id="path3871"
       cx="5.0800004"
       cy="103.09999"
       r="5.0799999"
       inkscape:label="i5i">
      <title
         id="title4168">i5i</title>
    </circle>
    <ellipse
       style="fill:#ff0000;fill-opacity:1;stroke-width:0.264583"
       id="path3875"
       cx="12.700001"
       cy="31.97999"
       rx="2.54"
       ry="5.0799999"
       inkscape:label="i1s">
      <title
         id="title4174">i1s</title>
    </ellipse>
    <ellipse
       style="fill:#ff0000;fill-opacity:1;stroke-width:0.264583"
       id="path3877"
       cx="12.700001"
       cy="52.299992"
       rx="2.54"
       ry="5.0799999"
       inkscape:label="i2s">
      <title
         id="title4176">i2s</title>
    </ellipse>
    <ellipse
       style="fill:#ff0000;fill-opacity:1;stroke-width:0.264583"
       id="path3879"
       cx="12.700001"
       cy="72.619987"
       rx="2.54"
       ry="5.0799999"
       inkscape:label="i3s">
      <title
         id="title4178">i3s</title>
    </ellipse>
    <ellipse
       style="fill:#ff0000;fill-opacity:1;stroke-width:0.264583"
       id="path3881"
       cx="12.700001"
       cy="92.939995"
       rx="2.54"
       ry="5.0799999"
       inkscape:label="i4s">
      <title
         id="title4180">i4s</title>
    </ellipse>
    <ellipse
       style="fill:#ff0000;fill-opacity:1;stroke-width:0.264583"
       id="path3883"
       cx="12.700001"
       cy="113.25999"
       rx="2.54"
       ry="5.0799999"
       inkscape:label="i5s">
      <title
         id="title4182">i5s</title>
    </ellipse>
    <ellipse
       style="fill:#ff0000;fill-opacity:1;stroke-width:0.264583"
       id="path3885"
       cx="22.860001"
       cy="21.819994"
       rx="2.54"
       ry="5.0799999"
       inkscape:label="m11">
      <title
         id="title4052">m11</title>
    </ellipse>
    <ellipse
       style="fill:#ff0000;fill-opacity:1;stroke-width:0.264583"
       id="path3887"
       cx="33.252537"
       cy="21.337036"
       rx="2.54"
       ry="5.0799999"
       inkscape:label="m12">
      <title
         id="title4054">m12</title>
    </ellipse>
    <ellipse
       style="fill:#ff0000;fill-opacity:1;stroke-width:0.264583"
       id="path3889"
       cx="43.001129"
       cy="21.498022"
       rx="2.54"
       ry="5.0799999"
       inkscape:label="m13">
      <title
         id="title4056">m13</title>
    </ellipse>
    <ellipse
       style="fill:#ff0000;fill-opacity:1;stroke-width:0.264583"
       id="path3891"
       cx="53.393661"
       cy="21.98098"
       rx="2.54"
       ry="5.0799999"
       inkscape:label="m14">
      <title
         id="title4058">m14</title>
    </ellipse>
    <ellipse
       style="fill:#ff0000;fill-opacity:1;stroke-width:0.264583"
       id="path3893"
       cx="63.46423"
       cy="21.659008"
       rx="2.54"
       ry="5.0799999"
       inkscape:label="m15">
      <title
         id="title4060">m15</title>
    </ellipse>
    <ellipse
       style="fill:#ff0000;fill-opacity:1;stroke-width:0.264583"
       id="path3895"
       cx="88.220284"
       cy="22.141966"
       rx="2.54"
       ry="5.0799999"
       inkscape:label="eq1s">
      <title
         id="title4062">eq1s</title>
    </ellipse>
    <circle
       style="fill:#ff0000;fill-opacity:1;stroke-width:0.264583"
       id="path3897"
       cx="75.645493"
       cy="19.279993"
       r="7.6200004"
       inkscape:label="eq1k">
      <title
         id="title4040">eq1k</title>
    </circle>
    <ellipse
       style="fill:#ff0000;fill-opacity:1;stroke-width:0.264583"
       id="path3885-1"
       cx="22.548248"
       cy="42.285435"
       rx="2.5400002"
       ry="5.0800004"
       inkscape:label="m21">
      <title
         id="title4068">m21</title>
    </ellipse>
    <ellipse
       style="fill:#ff0000;fill-opacity:1;stroke-width:0.264583"
       id="path3887-2"
       cx="27.819048"
       cy="42.094635"
       rx="2.5400002"
       ry="5.0800004"
       inkscape:label="m22">
      <title
         id="title4070">m22</title>
    </ellipse>
    <ellipse
       style="fill:#ff0000;fill-opacity:1;stroke-width:0.264583"
       id="path3889-7"
       cx="32.899048"
       cy="42.094635"
       rx="2.5400002"
       ry="5.0800004"
       inkscape:label="m23">
      <title
         id="title4072">m23</title>
    </ellipse>
    <ellipse
       style="fill:#ff0000;fill-opacity:1;stroke-width:0.264583"
       id="path3891-0"
       cx="37.979042"
       cy="42.094635"
       rx="2.5400002"
       ry="5.0800004"
       inkscape:label="m24">
      <title
         id="title4074">m24</title>
    </ellipse>
    <ellipse
       style="fill:#ff0000;fill-opacity:1;stroke-width:0.264583"
       id="path3893-9"
       cx="43.059052"
       cy="42.094635"
       rx="2.5400002"
       ry="5.0800004"
       inkscape:label="m25">
      <title
         id="title4076">m25</title>
    </ellipse>
    <ellipse
       style="fill:#ff0000;fill-opacity:1;stroke-width:0.264583"
       id="path3895-3"
       cx="68.459053"
       cy="42.094635"
       rx="2.5400002"
       ry="5.0800004">
      <title
         id="title4118">eq2s</title>
    </ellipse>
    <circle
       style="fill:#ff0000;fill-opacity:1;stroke-width:0.264583"
       id="path3897-6"
       cx="58.299042"
       cy="39.554634"
       r="7.6200004"
       inkscape:label="eq2k">
      <title
         id="title4042">eq2k</title>
    </circle>
    <ellipse
       style="fill:#ff0000;fill-opacity:1;stroke-width:0.264583"
       id="path3885-0"
       cx="22.837322"
       cy="62.127377"
       rx="2.5400002"
       ry="5.0800004"
       inkscape:label="m31">
      <title
         id="title4078">m31</title>
    </ellipse>
    <ellipse
       style="fill:#ff0000;fill-opacity:1;stroke-width:0.264583"
       id="path3887-6"
       cx="27.917326"
       cy="62.127377"
       rx="2.5400002"
       ry="5.0800004"
       inkscape:label="m32">
      <title
         id="title4080">m32</title>
    </ellipse>
    <ellipse
       style="fill:#ff0000;fill-opacity:1;stroke-width:0.264583"
       id="path3889-2"
       cx="32.997322"
       cy="62.127377"
       rx="2.5400002"
       ry="5.0800004"
       inkscape:label="m33">
      <title
         id="title4082">m33</title>
    </ellipse>
    <ellipse
       style="fill:#ff0000;fill-opacity:1;stroke-width:0.264583"
       id="path3891-6"
       cx="38.077316"
       cy="62.127377"
       rx="2.5400002"
       ry="5.0800004"
       inkscape:label="m34">
      <title
         id="title4084">m34</title>
    </ellipse>
    <ellipse
       style="fill:#ff0000;fill-opacity:1;stroke-width:0.264583"
       id="path3893-1"
       cx="43.157326"
       cy="62.127377"
       rx="2.5400002"
       ry="5.0800004"
       inkscape:label="m35">
      <title
         id="title4086">m35</title>
    </ellipse>
    <ellipse
       style="fill:#ff0000;fill-opacity:1;stroke-width:0.264583"
       id="path3895-8"
       cx="68.557327"
       cy="62.127377"
       rx="2.5400002"
       ry="5.0800004"
       inkscape:label="eq3s">
      <title
         id="title4120">eq3s</title>
    </ellipse>
    <circle
       style="fill:#ff0000;fill-opacity:1;stroke-width:0.264583"
       id="path3897-7"
       cx="58.397316"
       cy="59.587376"
       r="7.6200004"
       inkscape:label="eq3k">
      <title
         id="title4044">eq3k</title>
    </circle>
    <ellipse
       style="fill:#ff0000;fill-opacity:1;stroke-width:0.264583"
       id="path3885-9"
       cx="22.648335"
       cy="82.779999"
       rx="2.5400002"
       ry="5.0800004"
       inkscape:label="m41">
      <title
         id="title4088">m41</title>
    </ellipse>
    <ellipse
       style="fill:#ff0000;fill-opacity:1;stroke-width:0.264583"
       id="path3887-20"
       cx="27.728338"
       cy="82.779999"
       rx="2.5400002"
       ry="5.0800004"
       inkscape:label="m42">
      <title
         id="title4090">m42</title>
    </ellipse>
    <ellipse
       style="fill:#ff0000;fill-opacity:1;stroke-width:0.264583"
       id="path3889-23"
       cx="32.808334"
       cy="82.779999"
       rx="2.5400002"
       ry="5.0800004"
       inkscape:label="m43">
      <title
         id="title4092">m43</title>
    </ellipse>
    <ellipse
       style="fill:#ff0000;fill-opacity:1;stroke-width:0.264583"
       id="path3891-7"
       cx="37.888329"
       cy="82.779999"
       rx="2.5400002"
       ry="5.0800004"
       inkscape:label="m44">
      <title
         id="title4094">m44</title>
    </ellipse>
    <ellipse
       style="fill:#ff0000;fill-opacity:1;stroke-width:0.264583"
       id="path3893-5"
       cx="42.968338"
       cy="82.779999"
       rx="2.5400002"
       ry="5.0800004"
       inkscape:label="m45">
      <title
         id="title4096">m45</title>
    </ellipse>
    <ellipse
       style="fill:#ff0000;fill-opacity:1;stroke-width:0.264583"
       id="path3895-9"
       cx="68.36834"
       cy="82.779999"
       rx="2.5400002"
       ry="5.0800004"
       inkscape:label="eq4s">
      <title
         id="title4122">eq4s</title>
    </ellipse>
    <circle
       style="fill:#ff0000;fill-opacity:1;stroke-width:0.264583"
       id="path3897-2"
       cx="58.208328"
       cy="80.239998"
       r="7.6200004"
       inkscape:label="eq4k">
      <title
         id="title4046">eq4k</title>
    </circle>
    <ellipse
       style="fill:#ff0000;fill-opacity:1;stroke-width:0.264583"
       id="path3885-2"
       cx="22.837322"
       cy="102.97904"
       rx="2.5400002"
       ry="5.0800004"
       inkscape:label="m51">
      <title
         id="title4098">m51</title>
    </ellipse>
    <ellipse
       style="fill:#ff0000;fill-opacity:1;stroke-width:0.264583"
       id="path3887-8"
       cx="27.917326"
       cy="102.97904"
       rx="2.5400002"
       ry="5.0800004"
       inkscape:label="m52">
      <title
         id="title4100">m52</title>
    </ellipse>
    <ellipse
       style="fill:#ff0000;fill-opacity:1;stroke-width:0.264583"
       id="path3889-9"
       cx="32.997322"
       cy="102.97904"
       rx="2.5400002"
       ry="5.0800004"
       inkscape:label="m53">
      <title
         id="title4102">m53</title>
    </ellipse>
    <ellipse
       style="fill:#ff0000;fill-opacity:1;stroke-width:0.264583"
       id="path3891-73"
       cx="38.077316"
       cy="102.97904"
       rx="2.5400002"
       ry="5.0800004"
       inkscape:label="m54">
      <title
         id="title4104">m54</title>
    </ellipse>
    <ellipse
       style="fill:#ff0000;fill-opacity:1;stroke-width:0.264583"
       id="path3893-6"
       cx="43.157326"
       cy="102.97904"
       rx="2.5400002"
       ry="5.0800004"
       inkscape:label="m55">
      <title
         id="title4106">m55</title>
    </ellipse>
    <ellipse
       style="fill:#ff0000;fill-opacity:1;stroke-width:0.264583"
       id="path3895-1"
       cx="68.557327"
       cy="102.97904"
       rx="2.5400002"
       ry="5.0800004"
       inkscape:label="eq5s">
      <title
         id="title4124">eq5s</title>
    </ellipse>
    <circle
       style="fill:#ff0000;fill-opacity:1;stroke-width:0.264583"
       id="path3897-29"
       cx="58.397316"
       cy="100.43904"
       r="7.6200004"
       inkscape:label="eq5k">
      <title
         id="title4048">eq5k</title>
    </circle>
    <ellipse
       style="fill:#ff0000;fill-opacity:1;stroke-width:0.264583"
       id="path3885-3"
       cx="22.625656"
       cy="123.27636"
       rx="2.5400002"
       ry="5.0800004"
       inkscape:label="m61">
      <title
         id="title4108">m61</title>
    </ellipse>
    <ellipse
       style="fill:#ff0000;fill-opacity:1;stroke-width:0.264583"
       id="path3887-1"
       cx="27.705658"
       cy="123.27636"
       rx="2.5400002"
       ry="5.0800004"
       inkscape:label="m62">
      <title
         id="title4110">m62</title>
    </ellipse>
    <ellipse
       style="fill:#ff0000;fill-opacity:1;stroke-width:0.264583"
       id="path3889-94"
       cx="32.785656"
       cy="123.27636"
       rx="2.5400002"
       ry="5.0800004"
       inkscape:label="m63">
      <title
         id="title4112">m63</title>
    </ellipse>
    <ellipse
       style="fill:#ff0000;fill-opacity:1;stroke-width:0.264583"
       id="path3891-78"
       cx="37.865654"
       cy="123.27636"
       rx="2.5400002"
       ry="5.0800004"
       inkscape:label="m64">
      <title
         id="title4114">m64</title>
    </ellipse>
    <ellipse
       style="fill:#ff0000;fill-opacity:1;stroke-width:0.264583"
       id="path3893-4"
       cx="42.94566"
       cy="123.27636"
       rx="2.5400002"
       ry="5.0800004"
       inkscape:label="m65">
      <title
         id="title4116">m65</title>
    </ellipse>
    <ellipse
       style="fill:#ff0000;fill-opacity:1;stroke-width:0.264583"
       id="path3895-5"
       cx="68.345657"
       cy="123.27636"
       rx="2.5400002"
       ry="5.0800004"
       inkscape:label="eq6s">
      <title
         id="title4126">eq6s</title>
    </ellipse>
    <circle
       style="fill:#ff0000;fill-opacity:1;stroke-width:0.264583"
       id="path3897-0"
       cx="58.18565"
       cy="120.73637"
       r="7.6200004"
       inkscape:label="eq6k">
      <title
         id="title4050">eq6k</title>
    </circle>
    <circle
       style="fill:#ff00ff;fill-opacity:1;stroke-width:0.264583"
       id="path4024"
       cx="5.0800004"
       cy="31.97999"
       r="5.0799999"
       inkscape:label="i1l">
      <title
         id="title4154">i1l</title>
    </circle>
    <circle
       style="fill:#ff00ff;fill-opacity:1;stroke-width:0.264583"
       id="path4026"
       cx="5.0800004"
       cy="52.299992"
       r="5.0799999"
       inkscape:label="i2l">
      <title
         id="title4158">i2l</title>
    </circle>
    <circle
       style="fill:#ff00ff;fill-opacity:1;stroke-width:0.264583"
       id="path4028"
       cx="5.0800004"
       cy="72.619987"
       r="5.0799999"
       inkscape:label="i3l">
      <title
         id="title4162">i3l</title>
    </circle>
    <circle
       style="fill:#ff00ff;fill-opacity:1;stroke-width:0.264583"
       id="path4030"
       cx="5.0800004"
       cy="92.939995"
       r="5.0799999"
       inkscape:label="i4l">
      <title
         id="title4166">i4l</title>
    </circle>
    <circle
       style="fill:#ff00ff;fill-opacity:1;stroke-width:0.264583"
       id="path4032"
       cx="96.520004"
       cy="42.139996"
       r="5.0799999"
       inkscape:label="o1l">
      <title
         id="title4138">o1l</title>
    </circle>
    <circle
       style="fill:#ff00ff;fill-opacity:1;stroke-width:0.264583"
       id="path4034"
       cx="96.520004"
       cy="82.779991"
       r="5.0799999"
       inkscape:label="o2l">
      <title
         id="title4144">o2l</title>
    </circle>
    <circle
       style="fill:#ff00ff;fill-opacity:1;stroke-width:0.264583"
       id="path4038"
       cx="96.520004"
       cy="123.41999"
       r="5.0799999"
       inkscape:label="o3l">
      <title
         id="title4150">o3l</title>
    </circle>
    <circle
       style="fill:#ff00ff;fill-opacity:1;stroke-width:0.264583"
       id="path4170"
       cx="5.0800004"
       cy="113.25999"
       r="5.0799999"
       inkscape:label="i5l">
      <title
         id="title4172">15l</title>
    </circle>
    <ellipse
       ry="5.0800004"
       rx="2.5400002"
       cy="42.094635"
       cx="68.459053"
       id="ellipse4205"
       style="fill:#ff0000;fill-opacity:1;stroke-width:0.264583"
       inkscape:label="eq2s">
      <title
         id="title4203">eq2s</title>
    </ellipse>
  </g>
</svg>
