<?xml version="1.0" encoding="UTF-8" standalone="no"?>
<!-- Created with Inkscape (http://www.inkscape.org/) -->

<svg
   xmlns:dc="http://purl.org/dc/elements/1.1/"
   xmlns:cc="http://creativecommons.org/ns#"
   xmlns:rdf="http://www.w3.org/1999/02/22-rdf-syntax-ns#"
   xmlns:svg="http://www.w3.org/2000/svg"
   xmlns="http://www.w3.org/2000/svg"
   xmlns:sodipodi="http://sodipodi.sourceforge.net/DTD/sodipodi-0.dtd"
   xmlns:inkscape="http://www.inkscape.org/namespaces/inkscape"
   width="71.120003mm"
   height="128.5mm"
   viewBox="0 0 71.120007 128.5"
   version="1.1"
   id="svg8"
   inkscape:version="0.92.4 (5da689c313, 2019-01-14)"
   sodipodi:docname="LatticeExpander.svg">
  <defs
     id="defs2" />
  <sodipodi:namedview
     id="base"
     pagecolor="#ffffff"
     bordercolor="#666666"
     borderopacity="1.0"
     inkscape:pageopacity="0.0"
     inkscape:pageshadow="2"
     inkscape:zoom="1.4142136"
     inkscape:cx="74.146781"
     inkscape:cy="257.62527"
     inkscape:document-units="mm"
     inkscape:current-layer="text6927"
     showgrid="true"
     inkscape:window-width="1920"
     inkscape:window-height="1043"
     inkscape:window-x="1920"
     inkscape:window-y="0"
     inkscape:window-maximized="1">
    <inkscape:grid
       type="xygrid"
       id="grid29"
       units="mm"
       spacingx="2.5400001"
       spacingy="2.5400001"
       empspacing="8"
       snapvisiblegridlinesonly="true" />
  </sodipodi:namedview>
  <metadata
     id="metadata5">
    <rdf:RDF>
      <cc:Work
         rdf:about="">
        <dc:format>image/svg+xml</dc:format>
        <dc:type
           rdf:resource="http://purl.org/dc/dcmitype/StillImage" />
        <dc:title />
      </cc:Work>
    </rdf:RDF>
  </metadata>
  <g
     inkscape:label="Layer 1"
     inkscape:groupmode="layer"
     id="layer1"
     transform="translate(0,-168.5)"
     style="display:inline">
    <path
       style="fill:#b3b3b3;stroke-width:0.2333405"
       d="M -4.0000096e-6,167.45999 H 71.120003 V 296.99997 H -4.0000096e-6 Z"
       id="rect3742"
       inkscape:connector-curvature="0" />
    <g
       transform="matrix(0.93609987,0.03367917,-0.05167333,1.066403,0,0)"
       style="font-style:normal;font-weight:normal;font-size:2.87843347px;line-height:1.25;font-family:sans-serif;letter-spacing:0px;word-spacing:0px;fill:#000000;fill-opacity:1;stroke:none;stroke-width:0.07196084"
       id="text5027" />
    <g
       style="font-style:normal;font-weight:normal;font-size:2.46944451px;line-height:1.25;font-family:sans-serif;letter-spacing:0px;word-spacing:0px;display:inline;fill:#000000;fill-opacity:1;stroke:none;stroke-width:0.26458332"
       id="text4768-2-8" />
    <g
       aria-label="the all electric smartgrid"
       transform="matrix(0.136614,0,0,0.12152503,15.567529,273.83571)"
       style="font-style:normal;font-weight:normal;font-size:40px;line-height:1.25;font-family:sans-serif;letter-spacing:0px;word-spacing:0px;display:inline;fill:#000000;fill-opacity:1;stroke:none"
       id="flowRoot13252">
      <path
         d="m 47.324219,49.824219 v 6.210937 h 7.402343 v 2.792969 h -7.402343 v 11.875 q 0,2.675781 0.722656,3.4375 0.742187,0.761719 2.988281,0.761719 h 3.691406 v 3.007812 h -3.691406 q -4.160156,0 -5.742187,-1.542969 -1.582032,-1.5625 -1.582032,-5.664062 v -11.875 h -2.636718 v -2.792969 h 2.636718 v -6.210937 z"
         id="path13982"
         inkscape:connector-curvature="0" />
      <path
         d="M 77.65625,64.707031 V 77.910156 H 74.0625 V 64.824219 q 0,-3.105469 -1.210938,-4.648438 -1.210937,-1.542969 -3.632812,-1.542969 -2.910156,0 -4.589844,1.855469 -1.679687,1.855469 -1.679687,5.058594 V 77.910156 H 59.335937 V 47.519531 h 3.613282 v 11.914063 q 1.289062,-1.972657 3.027343,-2.949219 1.757813,-0.976563 4.042969,-0.976563 3.769531,0 5.703125,2.34375 1.933594,2.324219 1.933594,6.855469 z"
         id="path13984"
         inkscape:connector-curvature="0" />
      <path
         d="m 103.57422,66.074219 v 1.757812 H 87.050781 q 0.234375,3.710938 2.226563,5.664063 2.011718,1.933593 5.585937,1.933593 2.070313,0 4.003906,-0.507812 1.953123,-0.507813 3.867193,-1.523438 v 3.398438 q -1.9336,0.820312 -3.964849,1.25 -2.03125,0.429687 -4.121094,0.429687 -5.234375,0 -8.300781,-3.046875 -3.046875,-3.046875 -3.046875,-8.242187 0,-5.371094 2.890625,-8.515625 2.910156,-3.164063 7.832031,-3.164063 4.414063,0 6.972653,2.851563 2.57813,2.832031 2.57813,7.714844 z M 99.980469,65.019531 Q 99.941406,62.070312 98.320312,60.3125 96.71875,58.554687 94.0625,58.554687 q -3.007813,0 -4.824219,1.699219 -1.796875,1.699219 -2.070312,4.785156 z"
         id="path13986"
         inkscape:connector-curvature="0" />
      <path
         d="m 132.14844,66.914062 q -4.35547,0 -6.03516,0.996094 -1.67969,0.996094 -1.67969,3.398438 0,1.914062 1.25,3.046875 1.26954,1.113281 3.4375,1.113281 2.98828,0 4.78516,-2.109375 1.81641,-2.128906 1.81641,-5.644531 v -0.800782 z m 7.16797,-1.484375 v 12.480469 h -3.59375 v -3.320312 q -1.23047,1.992187 -3.06641,2.949218 -1.83594,0.9375 -4.49219,0.9375 -3.35937,0 -5.35156,-1.875 -1.97266,-1.894531 -1.97266,-5.058593 0,-3.691407 2.46094,-5.566407 2.48047,-1.875 7.38281,-1.875 h 5.03907 V 63.75 q 0,-2.480469 -1.64063,-3.828125 -1.62109,-1.367188 -4.57031,-1.367188 -1.875,0 -3.65234,0.449219 -1.77735,0.449219 -3.41797,1.347656 V 57.03125 q 1.97265,-0.761719 3.82812,-1.132813 1.85547,-0.390625 3.61328,-0.390625 4.7461,0 7.08985,2.460938 2.34375,2.460937 2.34375,7.460937 z"
         id="path13988"
         inkscape:connector-curvature="0" />
      <path
         d="m 146.73828,47.519531 h 3.59375 v 30.390625 h -3.59375 z"
         id="path13990"
         inkscape:connector-curvature="0" />
      <path
         d="m 157.83203,47.519531 h 3.59375 v 30.390625 h -3.59375 z"
         id="path13992"
         inkscape:connector-curvature="0" />
      <path
         d="m 62.480469,116.07422 v 1.75781 H 45.957031 q 0.234375,3.71094 2.226563,5.66406 2.011718,1.9336 5.585937,1.9336 2.070313,0 4.003906,-0.50781 1.953125,-0.50782 3.867188,-1.52344 v 3.39844 q -1.933594,0.82031 -3.964844,1.24999 -2.03125,0.42969 -4.121094,0.42969 -5.234375,0 -8.300781,-3.04687 -3.046875,-3.04688 -3.046875,-8.24219 0,-5.37109 2.890625,-8.51562 2.910156,-3.16407 7.832031,-3.16407 4.414063,0 6.972657,2.85157 2.578125,2.83203 2.578125,7.71484 z m -3.59375,-1.05469 q -0.03906,-2.94922 -1.660157,-4.70703 -1.601562,-1.75781 -4.257812,-1.75781 -3.007813,0 -4.824219,1.69922 -1.796875,1.69922 -2.070312,4.78515 z"
         id="path13994"
         inkscape:connector-curvature="0" />
      <path
         d="m 68.378906,97.519531 h 3.59375 v 30.390629 h -3.59375 z"
         id="path13996"
         inkscape:connector-curvature="0" />
      <path
         d="m 98.183594,116.07422 v 1.75781 H 81.660156 q 0.234375,3.71094 2.226563,5.66406 2.011718,1.9336 5.585937,1.9336 2.070313,0 4.003906,-0.50781 1.953125,-0.50782 3.867188,-1.52344 v 3.39844 q -1.933594,0.82031 -3.964844,1.24999 -2.03125,0.42969 -4.121094,0.42969 -5.234375,0 -8.300781,-3.04687 -3.046875,-3.04688 -3.046875,-8.24219 0,-5.37109 2.890625,-8.51562 2.910156,-3.16407 7.832031,-3.16407 4.414063,0 6.972657,2.85157 2.578125,2.83203 2.578125,7.71484 z m -3.59375,-1.05469 q -0.03906,-2.94922 -1.660157,-4.70703 -1.601562,-1.75781 -4.257812,-1.75781 -3.007813,0 -4.824219,1.69922 -1.796875,1.69922 -2.070312,4.78515 z"
         id="path13998"
         inkscape:connector-curvature="0" />
      <path
         d="m 119.82422,106.875 v 3.35938 q -1.52344,-0.83985 -3.06641,-1.25 -1.52343,-0.42969 -3.08593,-0.42969 -3.4961,0 -5.42969,2.22656 -1.9336,2.20703 -1.9336,6.21094 0,4.0039 1.9336,6.23047 1.93359,2.20703 5.42969,2.20703 1.5625,0 3.08593,-0.41016 1.54297,-0.42969 3.06641,-1.26953 v 3.32031 q -1.50391,0.70313 -3.125,1.05469 -1.60156,0.35156 -3.41797,0.35156 -4.94141,0 -7.85156,-3.10547 -2.91016,-3.10546 -2.91016,-8.3789 0,-5.35156 2.92969,-8.41797 2.94922,-3.06641 8.06641,-3.06641 1.66015,0 3.24218,0.35157 1.58203,0.33203 3.06641,1.01562 z"
         id="path14000"
         inkscape:connector-curvature="0" />
      <path
         d="m 129.66797,99.824219 v 6.210941 h 7.40234 v 2.79297 h -7.40234 v 11.875 q 0,2.67578 0.72265,3.4375 0.74219,0.76171 2.98829,0.76171 h 3.6914 v 3.00782 h -3.6914 q -4.16016,0 -5.74219,-1.54297 -1.58203,-1.5625 -1.58203,-5.66406 v -11.875 h -2.63672 v -2.79297 h 2.63672 v -6.210941 z"
         id="path14002"
         inkscape:connector-curvature="0" />
      <path
         d="m 154.49219,109.39453 q -0.60547,-0.35156 -1.32813,-0.50781 -0.70312,-0.17578 -1.5625,-0.17578 -3.04687,0 -4.6875,1.99219 -1.62109,1.97265 -1.62109,5.68359 v 11.52344 h -3.61328 v -21.875 h 3.61328 v 3.39843 q 1.13281,-1.99218 2.94922,-2.94921 1.8164,-0.97657 4.41406,-0.97657 0.37109,0 0.82031,0.0586 0.44922,0.0391 0.9961,0.13672 z"
         id="path14004"
         inkscape:connector-curvature="0" />
      <path
         d="m 158.30078,106.03516 h 3.59375 v 21.875 h -3.59375 z m 0,-8.515629 h 3.59375 v 4.550779 h -3.59375 z"
         id="path14006"
         inkscape:connector-curvature="0" />
      <path
         d="m 185.13672,106.875 v 3.35938 q -1.52344,-0.83985 -3.06641,-1.25 -1.52344,-0.42969 -3.08594,-0.42969 -3.49609,0 -5.42968,2.22656 -1.9336,2.20703 -1.9336,6.21094 0,4.0039 1.9336,6.23047 1.93359,2.20703 5.42968,2.20703 1.5625,0 3.08594,-0.41016 1.54297,-0.42969 3.06641,-1.26953 v 3.32031 q -1.50391,0.70313 -3.125,1.05469 -1.60156,0.35156 -3.41797,0.35156 -4.94141,0 -7.85156,-3.10547 -2.91016,-3.10546 -2.91016,-8.3789 0,-5.35156 2.92969,-8.41797 2.94922,-3.06641 8.0664,-3.06641 1.66016,0 3.24219,0.35157 1.58203,0.33203 3.06641,1.01562 z"
         id="path14008"
         inkscape:connector-curvature="0" />
      <path
         d="m 57.714844,156.67969 v 3.39843 q -1.523438,-0.78125 -3.164063,-1.17187 -1.640625,-0.39063 -3.398437,-0.39063 -2.675782,0 -4.023438,0.82032 -1.328125,0.82031 -1.328125,2.46093 0,1.25 0.957031,1.97266 0.957032,0.70313 3.847657,1.34766 l 1.230468,0.27343 q 3.828125,0.82032 5.429688,2.32422 1.621094,1.48438 1.621094,4.16016 0,3.04687 -2.421875,4.82422 -2.402344,1.77734 -6.621094,1.77734 -1.757813,0 -3.671875,-0.35156 -1.894531,-0.33203 -4.003906,-1.01563 v -3.71093 q 1.992187,1.03515 3.925781,1.5625 1.933594,0.50781 3.828125,0.50781 2.539062,0 3.90625,-0.85938 1.367187,-0.8789 1.367187,-2.46093 0,-1.46485 -0.996093,-2.2461 -0.976563,-0.78125 -4.316407,-1.5039 l -1.25,-0.29297 q -3.339843,-0.70313 -4.824218,-2.14844 -1.484375,-1.46484 -1.484375,-4.00391 0,-3.08593 2.1875,-4.76562 2.1875,-1.67969 6.210937,-1.67969 1.992188,0 3.75,0.29297 1.757813,0.29297 3.242188,0.87891 z"
         id="path14010"
         inkscape:connector-curvature="0" />
      <path
         d="m 81.660156,160.23437 q 1.347656,-2.42187 3.222656,-3.57421 1.875,-1.15235 4.414063,-1.15235 3.417969,0 5.273437,2.40235 1.855469,2.38281 1.855469,6.79687 v 13.20313 H 92.8125 v -13.08594 q 0,-3.14453 -1.113281,-4.66797 -1.113282,-1.52344 -3.398438,-1.52344 -2.792969,0 -4.414062,1.85547 -1.621094,1.85547 -1.621094,5.05859 v 12.36329 h -3.613281 v -13.08594 q 0,-3.16406 -1.113282,-4.66797 -1.113281,-1.52344 -3.4375,-1.52344 -2.753906,0 -4.375,1.875 -1.621093,1.85547 -1.621093,5.03906 v 12.36329 h -3.613282 v -21.875 h 3.613282 v 3.39843 q 1.230468,-2.01172 2.949218,-2.96875 1.71875,-0.95703 4.082032,-0.95703 2.382812,0 4.042968,1.21094 1.679688,1.21094 2.480469,3.51562 z"
         id="path14012"
         inkscape:connector-curvature="0" />
      <path
         d="m 113.55469,166.91406 q -4.35547,0 -6.03516,0.9961 -1.67969,0.99609 -1.67969,3.39843 0,1.91407 1.25,3.04688 1.26954,1.11328 3.4375,1.11328 2.98829,0 4.78516,-2.10938 1.81641,-2.1289 1.81641,-5.64453 v -0.80078 z m 7.16797,-1.48437 v 12.48047 h -3.59375 v -3.32032 q -1.23047,1.99219 -3.06641,2.94922 -1.83594,0.9375 -4.49219,0.9375 -3.35937,0 -5.35156,-1.875 -1.97266,-1.89453 -1.97266,-5.05859 0,-3.69141 2.46094,-5.56641 2.48047,-1.875 7.38281,-1.875 h 5.03907 V 163.75 q 0,-2.48047 -1.64063,-3.82813 -1.62109,-1.36718 -4.57031,-1.36718 -1.875,0 -3.65234,0.44922 -1.77735,0.44921 -3.41797,1.34765 v -3.32031 q 1.97265,-0.76172 3.82812,-1.13281 1.85547,-0.39063 3.61328,-0.39063 4.7461,0 7.08985,2.46094 2.34375,2.46094 2.34375,7.46094 z"
         id="path14014"
         inkscape:connector-curvature="0" />
      <path
         d="m 140.82031,159.39453 q -0.60547,-0.35156 -1.32812,-0.50781 -0.70313,-0.17578 -1.5625,-0.17578 -3.04688,0 -4.6875,1.99218 -1.6211,1.97266 -1.6211,5.6836 v 11.52344 h -3.61328 v -21.875 h 3.61328 v 3.39843 q 1.13282,-1.99218 2.94922,-2.94922 1.81641,-0.97656 4.41406,-0.97656 0.3711,0 0.82032,0.0586 0.44922,0.0391 0.99609,0.13671 z"
         id="path14016"
         inkscape:connector-curvature="0" />
      <path
         d="m 148.18359,149.82422 v 6.21094 h 7.40235 v 2.79296 h -7.40235 v 11.875 q 0,2.67579 0.72266,3.4375 0.74219,0.76172 2.98828,0.76172 h 3.69141 v 3.00782 h -3.69141 q -4.16016,0 -5.74219,-1.54297 -1.58203,-1.5625 -1.58203,-5.66407 v -11.875 h -2.63672 v -2.79296 h 2.63672 v -6.21094 z"
         id="path14018"
         inkscape:connector-curvature="0" />
      <path
         d="m 174.72656,166.71875 q 0,-3.90625 -1.62109,-6.05469 -1.60156,-2.14844 -4.51172,-2.14844 -2.89063,0 -4.51172,2.14844 -1.60156,2.14844 -1.60156,6.05469 0,3.88672 1.60156,6.03516 1.62109,2.14843 4.51172,2.14843 2.91016,0 4.51172,-2.14843 1.62109,-2.14844 1.62109,-6.03516 z m 3.59375,8.47656 q 0,5.58594 -2.48047,8.30078 -2.48047,2.73438 -7.59765,2.73438 -1.89453,0 -3.57422,-0.29297 -1.67969,-0.27344 -3.26172,-0.85938 v -3.49609 q 1.58203,0.85938 3.125,1.26953 1.54297,0.41016 3.14453,0.41016 3.53516,0 5.29297,-1.85547 1.75781,-1.83594 1.75781,-5.56641 v -1.77734 q -1.11328,1.93359 -2.85156,2.89062 -1.73828,0.95704 -4.16016,0.95704 -4.02343,0 -6.48437,-3.06641 -2.46094,-3.06641 -2.46094,-8.125 0,-5.07813 2.46094,-8.14453 2.46094,-3.06641 6.48437,-3.06641 2.42188,0 4.16016,0.95703 1.73828,0.95703 2.85156,2.89063 v -3.32031 h 3.59375 z"
         id="path14020"
         inkscape:connector-curvature="0" />
      <path
         d="m 198.39844,159.39453 q -0.60547,-0.35156 -1.32813,-0.50781 -0.70312,-0.17578 -1.5625,-0.17578 -3.04687,0 -4.6875,1.99218 -1.62109,1.97266 -1.62109,5.6836 v 11.52344 h -3.61328 v -21.875 h 3.61328 v 3.39843 q 1.13281,-1.99218 2.94922,-2.94922 1.8164,-0.97656 4.41406,-0.97656 0.37109,0 0.82031,0.0586 0.44922,0.0391 0.9961,0.13671 z"
         id="path14022"
         inkscape:connector-curvature="0" />
      <path
         d="m 202.20703,156.03516 h 3.59375 v 21.875 h -3.59375 z m 0,-8.51563 h 3.59375 v 4.55078 h -3.59375 z"
         id="path14024"
         inkscape:connector-curvature="0" />
      <path
         d="m 227.69531,159.35547 v -11.83594 h 3.59375 v 30.39063 h -3.59375 v -3.28125 q -1.13281,1.95312 -2.87109,2.91015 -1.71875,0.9375 -4.14063,0.9375 -3.96484,0 -6.46484,-3.16406 -2.48047,-3.16406 -2.48047,-8.32031 0,-5.15625 2.48047,-8.32032 2.5,-3.16406 6.46484,-3.16406 2.42188,0 4.14063,0.95703 1.73828,0.9375 2.87109,2.89063 z m -12.24609,7.63672 q 0,3.96484 1.62109,6.23047 1.64063,2.24609 4.49219,2.24609 2.85156,0 4.49219,-2.24609 1.64062,-2.26563 1.64062,-6.23047 0,-3.96485 -1.64062,-6.21094 -1.64063,-2.26563 -4.49219,-2.26563 -2.85156,0 -4.49219,2.26563 -1.62109,2.24609 -1.62109,6.21094 z"
         id="path14026"
         inkscape:connector-curvature="0" />
    </g>
    <g
       aria-label="LaMeJuIS"
       style="font-style:normal;font-weight:normal;font-size:10.58333302px;line-height:1.25;font-family:sans-serif;letter-spacing:0px;word-spacing:0px;display:inline;fill:#000000;fill-opacity:1;stroke:none;stroke-width:0.26458332"
       id="text6927"
       transform="translate(0.7557114,-106.1549)">
      <g
         aria-label="Lattice
Expander"
         style="font-style:normal;font-weight:normal;font-size:10.58333302px;line-height:1.25;font-family:sans-serif;letter-spacing:0px;word-spacing:0px;fill:#000000;fill-opacity:1;stroke:none;stroke-width:0.07000434"
         id="text6009">
        <path
           d="m 12.982985,278.59959 h 1.043864 v 6.83679 h 3.756877 v 0.8785 h -4.800741 z"
           style="stroke-width:0.07000434"
           id="path6013" />
        <path
           d="m 21.463088,283.4055 q -1.152384,0 -1.596802,0.26355 -0.444417,0.26355 -0.444417,0.89917 0,0.50643 0.330729,0.80615 0.335897,0.29455 0.909505,0.29455 0.79065,0 1.266073,-0.5581 0.480591,-0.56327 0.480591,-1.49345 v -0.21187 z m 1.896525,-0.39274 v 3.30212 h -0.950846 v -0.8785 q -0.325562,0.5271 -0.81132,0.78032 -0.485759,0.24804 -1.188558,0.24804 -0.888835,0 -1.415934,-0.49609 -0.521932,-0.50126 -0.521932,-1.33842 0,-0.97669 0.651123,-1.47278 0.65629,-0.49609 1.953369,-0.49609 h 1.333252 v -0.093 q 0,-0.65629 -0.434082,-1.01286 -0.428915,-0.36173 -1.209229,-0.36173 -0.496094,0 -0.966349,0.11885 -0.470256,0.11886 -0.904338,0.35657 v -0.8785 q 0.521932,-0.20154 1.012858,-0.29972 0.490926,-0.10336 0.956014,-0.10336 1.255738,0 1.875855,0.65113 0.620117,0.65112 0.620117,1.97404 z"
           style="stroke-width:0.07000434"
           id="path6015" />
        <path
           d="m 26.263828,278.88381 v 1.64331 h 1.958537 v 0.73897 h -1.958537 v 3.14193 q 0,0.70797 0.191203,0.90951 0.19637,0.20153 0.790649,0.20153 h 0.976685 v 0.79582 H 27.24568 q -1.100708,0 -1.519287,-0.40824 -0.418579,-0.41341 -0.418579,-1.49862 v -3.14193 h -0.697632 v -0.73897 h 0.697632 v -1.64331 z"
           style="stroke-width:0.07000434"
           id="path6017" />
        <path
           d="m 30.418612,278.88381 v 1.64331 h 1.958537 v 0.73897 h -1.958537 v 3.14193 q 0,0.70797 0.191203,0.90951 0.196371,0.20153 0.79065,0.20153 h 0.976684 v 0.79582 h -0.976684 q -1.100708,0 -1.519287,-0.40824 -0.41858,-0.41341 -0.41858,-1.49862 v -3.14193 h -0.697631 v -0.73897 h 0.697631 v -1.64331 z"
           style="stroke-width:0.07000434"
           id="path6019" />
        <path
           d="m 33.632887,280.52712 h 0.950846 v 5.78776 h -0.950846 z m 0,-2.25309 h 0.950846 v 1.20406 h -0.950846 z"
           style="stroke-width:0.07000434"
           id="path6021" />
        <path
           d="m 40.733229,280.74933 v 0.88883 q -0.403076,-0.22221 -0.811319,-0.33073 -0.403077,-0.11368 -0.816488,-0.11368 -0.925008,0 -1.436605,0.58911 -0.511597,0.58394 -0.511597,1.64331 0,1.05936 0.511597,1.64848 0.511597,0.58394 1.436605,0.58394 0.413411,0 0.816488,-0.10852 0.408243,-0.11369 0.811319,-0.3359 v 0.8785 q -0.397908,0.18604 -0.826822,0.27905 -0.423747,0.093 -0.904338,0.093 -1.307414,0 -2.077392,-0.82165 -0.769979,-0.82166 -0.769979,-2.21692 0,-1.41594 0.775146,-2.22726 0.780314,-0.81132 2.134237,-0.81132 0.439249,0 0.857829,0.093 0.418579,0.0879 0.811319,0.26872 z"
           style="stroke-width:0.07000434"
           id="path6023" />
        <path
           d="m 47.347813,283.18329 v 0.46509 h -4.371826 q 0.06201,0.98185 0.589111,1.49861 0.532267,0.5116 1.477946,0.5116 0.54777,0 1.059367,-0.13436 0.516764,-0.13436 1.023193,-0.40308 v 0.89917 q -0.511597,0.21705 -1.049031,0.33073 -0.537435,0.11369 -1.090373,0.11369 -1.384928,0 -2.196248,-0.80615 -0.806153,-0.80615 -0.806153,-2.18075 0,-1.4211 0.764811,-2.25309 0.769979,-0.83716 2.072225,-0.83716 1.167888,0 1.844849,0.75448 0.682129,0.74931 0.682129,2.04122 z m -0.950847,-0.27905 q -0.01033,-0.78032 -0.439249,-1.24541 -0.423747,-0.46508 -1.126546,-0.46508 -0.795817,0 -1.276408,0.44958 -0.475423,0.44959 -0.54777,1.26607 z"
           style="stroke-width:0.07000434"
           id="path6025" />
        <path
           d="m 12.982985,291.82876 h 4.878256 v 0.87849 h -3.834392 v 2.2841 h 3.674195 v 0.8785 h -3.674195 v 2.7957 h 3.927409 v 0.8785 h -4.971273 z"
           style="stroke-width:0.07000434"
           id="path6027" />
        <path
           d="m 24.449986,293.75629 -2.092896,2.81636 2.201416,2.9714 h -1.121378 l -1.684652,-2.27377 -1.684652,2.27377 h -1.121378 l 2.247925,-3.02824 -2.056722,-2.75952 h 1.121378 l 1.53479,2.06189 1.53479,-2.06189 z"
           style="stroke-width:0.07000434"
           id="path6029" />
        <path
           d="m 26.821934,298.67588 v 3.06958 H 25.86592 v -7.98917 h 0.956014 v 0.8785 q 0.299723,-0.51677 0.754476,-0.76482 0.45992,-0.25321 1.09554,-0.25321 1.054199,0 1.71049,0.83716 0.661458,0.83716 0.661458,2.20141 0,1.36426 -0.661458,2.20142 -0.656291,0.83716 -1.71049,0.83716 -0.63562,0 -1.09554,-0.24805 -0.454753,-0.25321 -0.754476,-0.76998 z m 3.234945,-2.02055 q 0,-1.04903 -0.434082,-1.64331 -0.428915,-0.59944 -1.183391,-0.59944 -0.754476,0 -1.188558,0.59944 -0.428914,0.59428 -0.428914,1.64331 0,1.04904 0.428914,1.64848 0.434082,0.59428 1.188558,0.59428 0.754476,0 1.183391,-0.59428 0.434082,-0.59944 0.434082,-1.64848 z"
           style="stroke-width:0.07000434"
           id="path6031" />
        <path
           d="m 35.250359,296.63466 q -1.152384,0 -1.596801,0.26355 -0.444418,0.26355 -0.444418,0.89917 0,0.50643 0.33073,0.80616 0.335896,0.29455 0.909505,0.29455 0.790649,0 1.266072,-0.5581 0.480591,-0.56328 0.480591,-1.49345 v -0.21188 z m 1.896525,-0.39274 v 3.30213 h -0.950846 v -0.8785 q -0.325561,0.5271 -0.81132,0.78031 -0.485758,0.24805 -1.188558,0.24805 -0.888834,0 -1.415934,-0.4961 -0.521932,-0.50126 -0.521932,-1.33842 0,-0.97668 0.651123,-1.47277 0.656291,-0.4961 1.953369,-0.4961 h 1.333252 v -0.093 q 0,-0.6563 -0.434082,-1.01286 -0.428914,-0.36174 -1.209228,-0.36174 -0.496094,0 -0.96635,0.11886 -0.470255,0.11885 -0.904337,0.35657 v -0.8785 q 0.521932,-0.20154 1.012858,-0.29973 0.490926,-0.10335 0.956014,-0.10335 1.255737,0 1.875854,0.65112 0.620117,0.65113 0.620117,1.97404 z"
           style="stroke-width:0.07000434"
           id="path6033" />
        <path
           d="m 43.921665,296.05072 v 3.49333 h -0.950846 v -3.46232 q 0,-0.82166 -0.320394,-1.2299 -0.320394,-0.40825 -0.961181,-0.40825 -0.769979,0 -1.214397,0.49093 -0.444417,0.49093 -0.444417,1.33842 v 3.27112 h -0.956014 v -5.78776 h 0.956014 v 0.89917 q 0.341065,-0.52194 0.800985,-0.78032 0.465088,-0.25838 1.069702,-0.25838 0.997355,0 1.508952,0.62012 0.511596,0.61495 0.511596,1.81384 z"
           style="stroke-width:0.07000434"
           id="path6035" />
        <path
           d="m 49.637076,294.63479 v -3.1316 h 0.950847 v 8.04086 h -0.950847 v -0.86817 q -0.299723,0.51677 -0.759643,0.76998 -0.454753,0.24805 -1.095541,0.24805 -1.049031,0 -1.710489,-0.83716 -0.656291,-0.83716 -0.656291,-2.20142 0,-1.36425 0.656291,-2.20141 0.661458,-0.83716 1.710489,-0.83716 0.640788,0 1.095541,0.25321 0.45992,0.24805 0.759643,0.76482 z m -3.240112,2.02054 q 0,1.04904 0.428914,1.64848 0.434082,0.59428 1.188558,0.59428 0.754476,0 1.188558,-0.59428 0.434082,-0.59944 0.434082,-1.64848 0,-1.04903 -0.434082,-1.64331 -0.434082,-0.59944 -1.188558,-0.59944 -0.754476,0 -1.188558,0.59944 -0.428914,0.59428 -0.428914,1.64331 z"
           style="stroke-width:0.07000434"
           id="path6037" />
        <path
           d="m 57.497063,296.41245 v 0.46509 h -4.371826 q 0.06201,0.98185 0.589111,1.49862 0.532267,0.5116 1.477946,0.5116 0.54777,0 1.059367,-0.13436 0.516764,-0.13436 1.023193,-0.40308 v 0.89917 q -0.511596,0.21704 -1.049031,0.33073 -0.537435,0.11369 -1.090373,0.11369 -1.384928,0 -2.196248,-0.80615 -0.806153,-0.80616 -0.806153,-2.18075 0,-1.4211 0.764811,-2.25309 0.769979,-0.83716 2.072225,-0.83716 1.167888,0 1.844849,0.75448 0.682129,0.7493 0.682129,2.04121 z m -0.950847,-0.27905 q -0.01033,-0.78031 -0.439249,-1.2454 -0.423747,-0.46509 -1.126546,-0.46509 -0.795817,0 -1.276408,0.44959 -0.475423,0.44958 -0.54777,1.26607 z"
           style="stroke-width:0.07000434"
           id="path6039" />
        <path
           d="m 62.411492,294.64512 q -0.160197,-0.093 -0.3514,-0.13436 -0.186035,-0.0465 -0.413412,-0.0465 -0.806152,0 -1.240234,0.5271 -0.428914,0.52194 -0.428914,1.50379 v 3.04891 h -0.956014 v -5.78776 h 0.956014 v 0.89917 q 0.299723,-0.5271 0.780314,-0.78032 0.480591,-0.25838 1.167887,-0.25838 0.09819,0 0.217041,0.0155 0.118856,0.0103 0.26355,0.0362 z"
           style="stroke-width:0.07000434"
           id="path6041" />
      </g>
    </g>
  </g>
  <g
     inkscape:groupmode="layer"
     id="layer2"
     inkscape:label="components"
     style="display:none">
    <circle
       style="fill:#ff0000;fill-opacity:1;stroke-width:0.26458332"
       id="path3839"
       cx="83.820007"
       cy="34.519993"
       r="7.6200004"
       inkscape:label="o1k">
      <title
         id="title4128">o1k</title>
    </circle>
    <circle
       style="fill:#ff0000;fill-opacity:1;stroke-width:0.26458332"
       id="path3841"
       cx="83.820007"
       cy="75.159996"
       r="7.6200004"
       inkscape:label="o2k">
      <title
         id="title4130">o2k</title>
    </circle>
    <circle
       style="fill:#ff0000;fill-opacity:1;stroke-width:0.26458332"
       id="path3843"
       cx="83.820007"
       cy="115.8"
       r="7.6200004"
       inkscape:label="o3k">
      <title
         id="title4132">o3k</title>
    </circle>
    <circle
       style="fill:#0000ff;fill-opacity:1;stroke-width:0.26458332"
       id="path3847"
       cx="96.520004"
       cy="21.819994"
       r="5.0799999"
       inkscape:label="o1t">
      <title
         id="title4134">o1t</title>
    </circle>
    <circle
       style="fill:#0000ff;fill-opacity:1;stroke-width:0.26458332"
       id="path3849"
       cx="96.520004"
       cy="31.979994"
       r="5.0799999"
       inkscape:label="o1o">
      <title
         id="title4136">o1o</title>
    </circle>
    <circle
       style="fill:#0000ff;fill-opacity:1;stroke-width:0.26458332"
       id="path3851"
       cx="96.520004"
       cy="62.459995"
       r="5.0799999"
       inkscape:label="o2t">
      <title
         id="title4140">o2t</title>
    </circle>
    <circle
       style="fill:#0000ff;fill-opacity:1;stroke-width:0.26458332"
       id="path3853"
       cx="96.520004"
       cy="72.619995"
       r="5.0799999"
       inkscape:label="o2o">
      <title
         id="title4142">o2o</title>
    </circle>
    <circle
       style="fill:#0000ff;fill-opacity:1;stroke-width:0.26458332"
       id="path3855"
       cx="96.520004"
       cy="103.1"
       r="5.0799999"
       inkscape:label="o3t">
      <title
         id="title4146">o3t</title>
    </circle>
    <circle
       style="fill:#0000ff;fill-opacity:1;stroke-width:0.26458332"
       id="path3857"
       cx="96.520004"
       cy="113.25999"
       r="5.0799999"
       inkscape:label="o3o">
      <title
         id="title4148">o3o</title>
    </circle>
    <circle
       style="fill:#00ff00;fill-opacity:1;stroke-width:0.26458332"
       id="path3861"
       cx="5.0800004"
       cy="21.81999"
       r="5.0799999"
       inkscape:label="i1i">
      <title
         id="title4152">i1i</title>
    </circle>
    <circle
       style="fill:#00ff00;fill-opacity:1;stroke-width:0.26458332"
       id="path3865"
       cx="5.0800004"
       cy="42.139996"
       r="5.0799999"
       inkscape:label="i2i">
      <title
         id="title4156">12i</title>
    </circle>
    <circle
       style="fill:#00ff00;fill-opacity:1;stroke-width:0.26458332"
       id="path3867"
       cx="5.0800004"
       cy="62.459995"
       r="5.0799999"
       inkscape:label="i3i">
      <title
         id="title4160">i3i</title>
    </circle>
    <circle
       style="fill:#00ff00;fill-opacity:1;stroke-width:0.26458332"
       id="path3869"
       cx="5.0800004"
       cy="82.779984"
       r="5.0799999"
       inkscape:label="i4i">
      <title
         id="title4164">i4i</title>
    </circle>
    <circle
       style="fill:#00ff00;fill-opacity:1;stroke-width:0.26458332"
       id="path3871"
       cx="5.0800004"
       cy="103.09999"
       r="5.0799999"
       inkscape:label="i5i">
      <title
         id="title4168">i5i</title>
    </circle>
    <ellipse
       style="fill:#ff0000;fill-opacity:1;stroke-width:0.26458332"
       id="path3875"
       cx="12.700001"
       cy="31.97999"
       rx="2.54"
       ry="5.0799999"
       inkscape:label="i1s">
      <title
         id="title4174">i1s</title>
    </ellipse>
    <ellipse
       style="fill:#ff0000;fill-opacity:1;stroke-width:0.26458332"
       id="path3877"
       cx="12.700001"
       cy="52.299992"
       rx="2.54"
       ry="5.0799999"
       inkscape:label="i2s">
      <title
         id="title4176">i2s</title>
    </ellipse>
    <ellipse
       style="fill:#ff0000;fill-opacity:1;stroke-width:0.26458332"
       id="path3879"
       cx="12.700001"
       cy="72.619987"
       rx="2.54"
       ry="5.0799999"
       inkscape:label="i3s">
      <title
         id="title4178">i3s</title>
    </ellipse>
    <ellipse
       style="fill:#ff0000;fill-opacity:1;stroke-width:0.26458332"
       id="path3881"
       cx="12.700001"
       cy="92.939995"
       rx="2.54"
       ry="5.0799999"
       inkscape:label="i4s">
      <title
         id="title4180">i4s</title>
    </ellipse>
    <ellipse
       style="fill:#ff0000;fill-opacity:1;stroke-width:0.26458332"
       id="path3883"
       cx="12.700001"
       cy="113.25999"
       rx="2.54"
       ry="5.0799999"
       inkscape:label="i5s">
      <title
         id="title4182">i5s</title>
    </ellipse>
    <ellipse
       style="fill:#ff0000;fill-opacity:1;stroke-width:0.26458332"
       id="path3885"
       cx="22.860001"
       cy="21.819994"
       rx="2.54"
       ry="5.0799999"
       inkscape:label="m11">
      <title
         id="title4052">m11</title>
    </ellipse>
    <ellipse
       style="fill:#ff0000;fill-opacity:1;stroke-width:0.26458332"
       id="path3887"
       cx="33.252537"
       cy="21.337036"
       rx="2.54"
       ry="5.0799999"
       inkscape:label="m12">
      <title
         id="title4054">m12</title>
    </ellipse>
    <ellipse
       style="fill:#ff0000;fill-opacity:1;stroke-width:0.26458332"
       id="path3889"
       cx="43.001129"
       cy="21.498022"
       rx="2.54"
       ry="5.0799999"
       inkscape:label="m13">
      <title
         id="title4056">m13</title>
    </ellipse>
    <ellipse
       style="fill:#ff0000;fill-opacity:1;stroke-width:0.26458332"
       id="path3891"
       cx="53.393661"
       cy="21.98098"
       rx="2.54"
       ry="5.0799999"
       inkscape:label="m14">
      <title
         id="title4058">m14</title>
    </ellipse>
    <ellipse
       style="fill:#ff0000;fill-opacity:1;stroke-width:0.26458332"
       id="path3893"
       cx="63.46423"
       cy="21.659008"
       rx="2.54"
       ry="5.0799999"
       inkscape:label="m15">
      <title
         id="title4060">m15</title>
    </ellipse>
    <ellipse
       style="fill:#ff0000;fill-opacity:1;stroke-width:0.26458332"
       id="path3895"
       cx="88.220284"
       cy="22.141966"
       rx="2.54"
       ry="5.0799999"
       inkscape:label="eq1s">
      <title
         id="title4062">eq1s</title>
    </ellipse>
    <circle
       style="fill:#ff0000;fill-opacity:1;stroke-width:0.26458332"
       id="path3897"
       cx="75.645493"
       cy="19.279993"
       r="7.6200004"
       inkscape:label="eq1k">
      <title
         id="title4040">eq1k</title>
    </circle>
    <ellipse
       style="fill:#ff0000;fill-opacity:1;stroke-width:0.26458332"
       id="path3885-1"
       cx="22.548248"
       cy="42.285435"
       rx="2.5400002"
       ry="5.0800004"
       inkscape:label="m21">
      <title
         id="title4068">m21</title>
    </ellipse>
    <ellipse
       style="fill:#ff0000;fill-opacity:1;stroke-width:0.26458332"
       id="path3887-2"
       cx="27.819048"
       cy="42.094635"
       rx="2.5400002"
       ry="5.0800004"
       inkscape:label="m22">
      <title
         id="title4070">m22</title>
    </ellipse>
    <ellipse
       style="fill:#ff0000;fill-opacity:1;stroke-width:0.26458332"
       id="path3889-7"
       cx="32.899048"
       cy="42.094635"
       rx="2.5400002"
       ry="5.0800004"
       inkscape:label="m23">
      <title
         id="title4072">m23</title>
    </ellipse>
    <ellipse
       style="fill:#ff0000;fill-opacity:1;stroke-width:0.26458332"
       id="path3891-0"
       cx="37.979042"
       cy="42.094635"
       rx="2.5400002"
       ry="5.0800004"
       inkscape:label="m24">
      <title
         id="title4074">m24</title>
    </ellipse>
    <ellipse
       style="fill:#ff0000;fill-opacity:1;stroke-width:0.26458332"
       id="path3893-9"
       cx="43.059052"
       cy="42.094635"
       rx="2.5400002"
       ry="5.0800004"
       inkscape:label="m25">
      <title
         id="title4076">m25</title>
    </ellipse>
    <ellipse
       style="fill:#ff0000;fill-opacity:1;stroke-width:0.26458332"
       id="path3895-3"
       cx="68.459053"
       cy="42.094635"
       rx="2.5400002"
       ry="5.0800004">
      <title
         id="title4118">eq2s</title>
    </ellipse>
    <circle
       style="fill:#ff0000;fill-opacity:1;stroke-width:0.26458332"
       id="path3897-6"
       cx="58.299042"
       cy="39.554634"
       r="7.6200004"
       inkscape:label="eq2k">
      <title
         id="title4042">eq2k</title>
    </circle>
    <ellipse
       style="fill:#ff0000;fill-opacity:1;stroke-width:0.26458332"
       id="path3885-0"
       cx="22.837322"
       cy="62.127377"
       rx="2.5400002"
       ry="5.0800004"
       inkscape:label="m31">
      <title
         id="title4078">m31</title>
    </ellipse>
    <ellipse
       style="fill:#ff0000;fill-opacity:1;stroke-width:0.26458332"
       id="path3887-6"
       cx="27.917326"
       cy="62.127377"
       rx="2.5400002"
       ry="5.0800004"
       inkscape:label="m32">
      <title
         id="title4080">m32</title>
    </ellipse>
    <ellipse
       style="fill:#ff0000;fill-opacity:1;stroke-width:0.26458332"
       id="path3889-2"
       cx="32.997322"
       cy="62.127377"
       rx="2.5400002"
       ry="5.0800004"
       inkscape:label="m33">
      <title
         id="title4082">m33</title>
    </ellipse>
    <ellipse
       style="fill:#ff0000;fill-opacity:1;stroke-width:0.26458332"
       id="path3891-6"
       cx="38.077316"
       cy="62.127377"
       rx="2.5400002"
       ry="5.0800004"
       inkscape:label="m34">
      <title
         id="title4084">m34</title>
    </ellipse>
    <ellipse
       style="fill:#ff0000;fill-opacity:1;stroke-width:0.26458332"
       id="path3893-1"
       cx="43.157326"
       cy="62.127377"
       rx="2.5400002"
       ry="5.0800004"
       inkscape:label="m35">
      <title
         id="title4086">m35</title>
    </ellipse>
    <ellipse
       style="fill:#ff0000;fill-opacity:1;stroke-width:0.26458332"
       id="path3895-8"
       cx="68.557327"
       cy="62.127377"
       rx="2.5400002"
       ry="5.0800004"
       inkscape:label="eq3s">
      <title
         id="title4120">eq3s</title>
    </ellipse>
    <circle
       style="fill:#ff0000;fill-opacity:1;stroke-width:0.26458332"
       id="path3897-7"
       cx="58.397316"
       cy="59.587376"
       r="7.6200004"
       inkscape:label="eq3k">
      <title
         id="title4044">eq3k</title>
    </circle>
    <ellipse
       style="fill:#ff0000;fill-opacity:1;stroke-width:0.26458332"
       id="path3885-9"
       cx="22.648335"
       cy="82.779999"
       rx="2.5400002"
       ry="5.0800004"
       inkscape:label="m41">
      <title
         id="title4088">m41</title>
    </ellipse>
    <ellipse
       style="fill:#ff0000;fill-opacity:1;stroke-width:0.26458332"
       id="path3887-20"
       cx="27.728338"
       cy="82.779999"
       rx="2.5400002"
       ry="5.0800004"
       inkscape:label="m42">
      <title
         id="title4090">m42</title>
    </ellipse>
    <ellipse
       style="fill:#ff0000;fill-opacity:1;stroke-width:0.26458332"
       id="path3889-23"
       cx="32.808334"
       cy="82.779999"
       rx="2.5400002"
       ry="5.0800004"
       inkscape:label="m43">
      <title
         id="title4092">m43</title>
    </ellipse>
    <ellipse
       style="fill:#ff0000;fill-opacity:1;stroke-width:0.26458332"
       id="path3891-7"
       cx="37.888329"
       cy="82.779999"
       rx="2.5400002"
       ry="5.0800004"
       inkscape:label="m44">
      <title
         id="title4094">m44</title>
    </ellipse>
    <ellipse
       style="fill:#ff0000;fill-opacity:1;stroke-width:0.26458332"
       id="path3893-5"
       cx="42.968338"
       cy="82.779999"
       rx="2.5400002"
       ry="5.0800004"
       inkscape:label="m45">
      <title
         id="title4096">m45</title>
    </ellipse>
    <ellipse
       style="fill:#ff0000;fill-opacity:1;stroke-width:0.26458332"
       id="path3895-9"
       cx="68.36834"
       cy="82.779999"
       rx="2.5400002"
       ry="5.0800004"
       inkscape:label="eq4s">
      <title
         id="title4122">eq4s</title>
    </ellipse>
    <circle
       style="fill:#ff0000;fill-opacity:1;stroke-width:0.26458332"
       id="path3897-2"
       cx="58.208328"
       cy="80.239998"
       r="7.6200004"
       inkscape:label="eq4k">
      <title
         id="title4046">eq4k</title>
    </circle>
    <ellipse
       style="fill:#ff0000;fill-opacity:1;stroke-width:0.26458332"
       id="path3885-2"
       cx="22.837322"
       cy="102.97904"
       rx="2.5400002"
       ry="5.0800004"
       inkscape:label="m51">
      <title
         id="title4098">m51</title>
    </ellipse>
    <ellipse
       style="fill:#ff0000;fill-opacity:1;stroke-width:0.26458332"
       id="path3887-8"
       cx="27.917326"
       cy="102.97904"
       rx="2.5400002"
       ry="5.0800004"
       inkscape:label="m52">
      <title
         id="title4100">m52</title>
    </ellipse>
    <ellipse
       style="fill:#ff0000;fill-opacity:1;stroke-width:0.26458332"
       id="path3889-9"
       cx="32.997322"
       cy="102.97904"
       rx="2.5400002"
       ry="5.0800004"
       inkscape:label="m53">
      <title
         id="title4102">m53</title>
    </ellipse>
    <ellipse
       style="fill:#ff0000;fill-opacity:1;stroke-width:0.26458332"
       id="path3891-73"
       cx="38.077316"
       cy="102.97904"
       rx="2.5400002"
       ry="5.0800004"
       inkscape:label="m54">
      <title
         id="title4104">m54</title>
    </ellipse>
    <ellipse
       style="fill:#ff0000;fill-opacity:1;stroke-width:0.26458332"
       id="path3893-6"
       cx="43.157326"
       cy="102.97904"
       rx="2.5400002"
       ry="5.0800004"
       inkscape:label="m55">
      <title
         id="title4106">m55</title>
    </ellipse>
    <ellipse
       style="fill:#ff0000;fill-opacity:1;stroke-width:0.26458332"
       id="path3895-1"
       cx="68.557327"
       cy="102.97904"
       rx="2.5400002"
       ry="5.0800004"
       inkscape:label="eq5s">
      <title
         id="title4124">eq5s</title>
    </ellipse>
    <circle
       style="fill:#ff0000;fill-opacity:1;stroke-width:0.26458332"
       id="path3897-29"
       cx="58.397316"
       cy="100.43904"
       r="7.6200004"
       inkscape:label="eq5k">
      <title
         id="title4048">eq5k</title>
    </circle>
    <ellipse
       style="fill:#ff0000;fill-opacity:1;stroke-width:0.26458332"
       id="path3885-3"
       cx="22.625656"
       cy="123.27636"
       rx="2.5400002"
       ry="5.0800004"
       inkscape:label="m61">
      <title
         id="title4108">m61</title>
    </ellipse>
    <ellipse
       style="fill:#ff0000;fill-opacity:1;stroke-width:0.26458332"
       id="path3887-1"
       cx="27.705658"
       cy="123.27636"
       rx="2.5400002"
       ry="5.0800004"
       inkscape:label="m62">
      <title
         id="title4110">m62</title>
    </ellipse>
    <ellipse
       style="fill:#ff0000;fill-opacity:1;stroke-width:0.26458332"
       id="path3889-94"
       cx="32.785656"
       cy="123.27636"
       rx="2.5400002"
       ry="5.0800004"
       inkscape:label="m63">
      <title
         id="title4112">m63</title>
    </ellipse>
    <ellipse
       style="fill:#ff0000;fill-opacity:1;stroke-width:0.26458332"
       id="path3891-78"
       cx="37.865654"
       cy="123.27636"
       rx="2.5400002"
       ry="5.0800004"
       inkscape:label="m64">
      <title
         id="title4114">m64</title>
    </ellipse>
    <ellipse
       style="fill:#ff0000;fill-opacity:1;stroke-width:0.26458332"
       id="path3893-4"
       cx="42.94566"
       cy="123.27636"
       rx="2.5400002"
       ry="5.0800004"
       inkscape:label="m65">
      <title
         id="title4116">m65</title>
    </ellipse>
    <ellipse
       style="fill:#ff0000;fill-opacity:1;stroke-width:0.26458332"
       id="path3895-5"
       cx="68.345657"
       cy="123.27636"
       rx="2.5400002"
       ry="5.0800004"
       inkscape:label="eq6s">
      <title
         id="title4126">eq6s</title>
    </ellipse>
    <circle
       style="fill:#ff0000;fill-opacity:1;stroke-width:0.26458332"
       id="path3897-0"
       cx="58.18565"
       cy="120.73637"
       r="7.6200004"
       inkscape:label="eq6k">
      <title
         id="title4050">eq6k</title>
    </circle>
    <circle
       style="fill:#ff00ff;fill-opacity:1;stroke-width:0.26458332"
       id="path4024"
       cx="5.0800004"
       cy="31.97999"
       r="5.0799999"
       inkscape:label="i1l">
      <title
         id="title4154">i1l</title>
    </circle>
    <circle
       style="fill:#ff00ff;fill-opacity:1;stroke-width:0.26458332"
       id="path4026"
       cx="5.0800004"
       cy="52.299992"
       r="5.0799999"
       inkscape:label="i2l">
      <title
         id="title4158">i2l</title>
    </circle>
    <circle
       style="fill:#ff00ff;fill-opacity:1;stroke-width:0.26458332"
       id="path4028"
       cx="5.0800004"
       cy="72.619987"
       r="5.0799999"
       inkscape:label="i3l">
      <title
         id="title4162">i3l</title>
    </circle>
    <circle
       style="fill:#ff00ff;fill-opacity:1;stroke-width:0.26458332"
       id="path4030"
       cx="5.0800004"
       cy="92.939995"
       r="5.0799999"
       inkscape:label="i4l">
      <title
         id="title4166">i4l</title>
    </circle>
    <circle
       style="fill:#ff00ff;fill-opacity:1;stroke-width:0.26458332"
       id="path4032"
       cx="96.520004"
       cy="42.139996"
       r="5.0799999"
       inkscape:label="o1l">
      <title
         id="title4138">o1l</title>
    </circle>
    <circle
       style="fill:#ff00ff;fill-opacity:1;stroke-width:0.26458332"
       id="path4034"
       cx="96.520004"
       cy="82.779991"
       r="5.0799999"
       inkscape:label="o2l">
      <title
         id="title4144">o2l</title>
    </circle>
    <circle
       style="fill:#ff00ff;fill-opacity:1;stroke-width:0.26458332"
       id="path4038"
       cx="96.520004"
       cy="123.41999"
       r="5.0799999"
       inkscape:label="o3l">
      <title
         id="title4150">o3l</title>
    </circle>
    <circle
       style="fill:#ff00ff;fill-opacity:1;stroke-width:0.26458332"
       id="path4170"
       cx="5.0800004"
       cy="113.25999"
       r="5.0799999"
       inkscape:label="i5l">
      <title
         id="title4172">15l</title>
    </circle>
    <ellipse
       ry="5.0800004"
       rx="2.5400002"
       cy="42.094635"
       cx="68.459053"
       id="ellipse4205"
       style="fill:#ff0000;fill-opacity:1;stroke-width:0.26458332"
       inkscape:label="eq2s">
      <title
         id="title4203">eq2s</title>
    </ellipse>
  </g>
</svg>
